<?xml version="1.0" encoding="utf-8"?>
<!-- Generator: Adobe Illustrator 20.0.0, SVG Export Plug-In . SVG Version: 6.00 Build 0)  -->
<svg version="1.2" baseProfile="tiny" id="레이어_1"
	 xmlns="http://www.w3.org/2000/svg" xmlns:xlink="http://www.w3.org/1999/xlink" x="0px" y="0px" viewBox="0 0 600 600"
	 overflow="scroll" xml:space="preserve">
<ellipse fill="#000080" cx="300" cy="299.7" rx="300" ry="299.7"/>
<path fill="none" stroke="#FFFFFF" stroke-width="2.5" d="M442.2,121.9c-0.5-3.9-0.1-7.9-1.5-11.1c-5-11.1-14.9-14.4-27.2-9.4
	c-14.3,5.8-27,14.3-38.7,24c-18,14.9-35.2,30.7-52.9,46c-6.7,5.8-13.8,11.2-21,17c-1.2-9-5.3-12.4-13.7-10.7
	c-5.7,1.1-11.2,3.6-16.8,5.4c-9.8,3.3-19.4,7.8-29.4,9.5c-12.2,2.1-20.9,7.7-27.6,17.9c-12.3,18.9-26.9,36-42.1,52.6
	c-1.9,2.1-3.5,4.8-4.4,7.5c-6.3,18.1-12.6,36.2-18.6,54.5c-5.1,15.6-13.1,30.5-12.7,47.6c0,1.4-1.8,3.3-3.3,4.1
	c-7.8,4.2-15.8,8-23.7,12.2c-1,0.5-1.7,1.8-2.5,2.8c1.2,0,2.7,0.4,3.7-0.1c7.6-3.7,15-7.8,22.6-11.4c4.3-2,6.3-4.7,6.6-9.4
	c0.3-5.6,0.4-11.4,2.2-16.6c9.2-27.7,19-55.3,28.6-82.8c0.7-1.9,1.5-3.9,2.9-5.4c16.9-18.1,32.3-37.4,46.2-57.8
	c4.5-6.6,10.5-10.5,18.5-11.7c12.7-1.9,24.7-6,36.2-11.6c4.6-2.2,9.8-3.4,14.8-4.5c3.1-0.6,6.8-0.6,8.6,3c1.9,3.8,0.8,7.7-2.9,10.8
	c-1.8,1.5-3.5,3.2-5.5,4.5c-21.2,14.7-42.5,29.1-63.5,44c-15.2,10.8-29.8,22.4-44.7,33.7c-1.2,0.9-2,2.4-3,3.6
	c0.4,0.4,0.7,0.7,1.1,1.1c1.1-0.7,2.3-1.3,3.3-2.1c3-2.5,5.7-5.3,8.8-7.5c20.6-14.5,41-29.3,62-43.1c27.4-18.1,52.5-39,77.2-60.4
	c8.4-7.2,16.8-14.4,25.2-21.7c5.2-4.4,10.5-8.6,15.5-13.3c11.7-10.9,24.9-19.5,39-26.8c3.5-1.8,7.4-2.9,11.3-3.9
	c5.7-1.4,10.5,0.4,14.3,4.8c4,4.5,5.5,9.5,2.4,15c-1.5,2.6-3.3,5.3-5.5,7.3c-27.3,25.2-55.9,49-81.5,76
	c-9.4,9.9-20.6,18.2-30.9,27.3c-0.7,0.6-1.1,1.6-1.7,2.4c0.3,0.3,0.6,0.7,1,1c1.7-0.9,3.6-1.6,5.1-2.8c9.9-8.7,20.2-17,29.3-26.4
	c32.6-33.7,68-64.2,103.9-94.2c4.4-3.7,9.6-5.3,15.2-5.4c11-0.3,18.6,12.8,13.5,23.7c-2,4.2-5,8-8,11.6c-8.6,10-17.3,19.8-26.1,29.5
	c-25,27.8-49.5,56.2-78.7,80c-4.2,3.4-7.4,8-10.9,12.2c-1,1.2-1.4,2.9-2.1,4.4c0.4,0.3,0.8,0.6,1.1,0.9c0.8-0.7,1.7-1.3,2.4-2.1
	c4.4-5,8.1-10.7,13.2-14.8c20.8-16.4,38.3-36.2,56.2-55.4c12.9-13.8,25.2-28.3,37.8-42.4c4.1-4.6,9-5.6,14-3.3
	c9,4.3,12.9,17.9,7.4,26.1c-13.7,20.5-27.3,41-42.5,60.6c-12.4,16-25.3,31.2-40.5,44.6c-4.9,4.3-9.5,9-13.3,14.2
	c-6.3,8.4-11.8,17.3-17.6,26.1c-0.6,0.9-0.3,2.3-0.4,3.4c1-0.7,2.1-1.2,2.8-2.1c1.1-1.4,1.8-3,2.7-4.5c7.7-12.9,16.8-24.6,27.6-35.1
	c17.5-17.2,34.5-34.9,51.8-52.3c2.8-2.8,5.3-6,8.3-8.6c4.6-3.9,11-3.6,13.8,0.7c2.8,4.4,5.2,9.4,3.3,14.6c-2.5,7-5.4,14-9.2,20.5
	c-11.5,19.8-27.1,36.5-42,53.8c-17.7,20.5-36.2,40.3-49.6,64.1c-2.5,4.4-6,8.6-9.8,12c-22.8,20.3-45.5,40.6-68.8,60.3
	c-22.6,19-46.8,35.7-75.4,45.2c-6.4,2.1-12.4,5.5-18.5,8.2c0.1,0.5,0.3,1.1,0.4,1.6c1.9-0.3,3.9-0.3,5.6-1
	c7.5-3.2,14.7-7.1,22.4-9.7c16.9-5.9,31.8-15.1,46.1-25.5c28.4-20.7,54.5-44.1,80.7-67.6c11.3-10.1,20.4-21.7,28.3-34.5
	c5.6-9,12.1-17.5,18.9-25.7c11.8-14.2,24.2-28,36.3-42c12.5-14.5,24.6-29.3,33.2-46.5c2.1-4.2,3.7-8.7,4.8-13.3
	c1.7-7.1-2.7-17.2-8-19.8c-5.7-2.7-12.1-0.5-18.4,6.2c-2.1,2.3-4.3,4.7-6.4,7c-0.3-0.9-0.1-1.4,0.2-1.8
	c11.9-17.1,23.8-34.2,35.7-51.2c3.5-5,4.5-10.2,2.6-15.9c-3-9.1-8.1-16-19.3-16.4c1.3-1.5,2.3-2.5,3.1-3.7c2.9-4.6,6.6-8.9,8.3-14
	c5-14.9-6.9-28-22.2-24.4c-4.8,1.1-9.4,4.1-13.6,6.9C449.3,115.1,445.7,118.8,442.2,121.9z"/>
<path fill="none" stroke="#FFFFFF" stroke-width="2.5" d="M442.2,121.9c3.5-3,7.2-6.8,11.4-9.6c4.2-2.8,8.8-5.8,13.6-6.9
	c15.2-3.6,27.2,9.6,22.2,24.4c-1.7,5-5.4,9.4-8.3,14c-0.8,1.2-1.8,2.2-3.1,3.7c11.2,0.4,16.3,7.3,19.3,16.4c1.9,5.8,0.9,11-2.6,15.9
	c-12,17-23.8,34.2-35.7,51.2c-0.3,0.4-0.5,0.9-0.2,1.8c2.1-2.3,4.3-4.7,6.4-7c6.2-6.8,12.7-9,18.4-6.2c5.3,2.6,9.7,12.6,8,19.8
	c-1.1,4.5-2.7,9.1-4.8,13.3c-8.6,17.2-20.7,32-33.2,46.5c-12.1,14-24.4,27.8-36.3,42c-6.8,8.2-13.3,16.7-18.9,25.7
	c-7.9,12.8-17,24.3-28.3,34.5c-26.1,23.4-52.2,46.9-80.7,67.6c-14.3,10.4-29.2,19.6-46.1,25.5c-7.7,2.7-14.9,6.6-22.4,9.7
	c-1.7,0.7-3.7,0.7-5.6,1c-0.1-0.5-0.3-1.1-0.4-1.6c6.2-2.8,12.2-6.1,18.5-8.2c28.6-9.4,52.7-26.1,75.4-45.2
	c23.3-19.6,46-40,68.8-60.3c3.8-3.4,7.3-7.5,9.8-12c13.4-23.8,31.9-43.6,49.6-64.1c14.9-17.2,30.5-34,42-53.8
	c3.8-6.4,6.7-13.4,9.2-20.5c1.9-5.2-0.5-10.2-3.3-14.6c-2.7-4.2-9.2-4.6-13.8-0.7c-3,2.6-5.5,5.8-8.3,8.6
	c-17.2,17.5-34.2,35.2-51.8,52.3c-10.8,10.6-19.9,22.2-27.6,35.1c-0.9,1.5-1.7,3.2-2.7,4.5c-0.7,0.9-1.9,1.4-2.8,2.1
	c0.1-1.2-0.2-2.6,0.4-3.4c5.7-8.8,11.3-17.7,17.6-26.1c3.9-5.2,8.5-9.9,13.3-14.2c15.2-13.4,28.1-28.6,40.5-44.6
	c15.2-19.5,28.8-40.1,42.5-60.6c5.5-8.3,1.6-21.8-7.4-26.1c-5-2.4-9.9-1.3-14,3.3c-12.6,14.1-24.9,28.6-37.8,42.4
	c-18,19.2-35.4,39-56.2,55.4c-5.1,4-8.8,9.8-13.2,14.8c-0.7,0.8-1.6,1.4-2.4,2.1c-0.4-0.3-0.8-0.6-1.1-0.9c0.7-1.5,1.1-3.2,2.1-4.4
	c3.5-4.2,6.8-8.8,10.9-12.2c29.2-23.8,53.6-52.2,78.7-80c8.8-9.8,17.6-19.6,26.1-29.5c3.1-3.6,6-7.4,8-11.6
	c5.1-10.9-2.4-24-13.5-23.7c-5.6,0.1-10.8,1.7-15.2,5.4c-35.9,30-71.3,60.5-103.9,94.2c-9.1,9.4-19.5,17.7-29.3,26.4
	c-1.4,1.2-3.4,1.9-5.1,2.8c-0.3-0.3-0.6-0.7-1-1c0.5-0.8,1-1.7,1.7-2.4c10.3-9.1,21.4-17.4,30.9-27.3c25.6-27,54.2-50.8,81.5-76
	c2.2-2,4-4.7,5.5-7.3c3.1-5.5,1.6-10.5-2.4-15c-3.9-4.4-8.6-6.3-14.3-4.8c-3.9,1-7.8,2.1-11.3,3.9c-14.1,7.3-27.4,15.9-39,26.8
	c-5,4.6-10.3,8.9-15.5,13.3c-8.4,7.2-16.9,14.4-25.2,21.7c-24.8,21.4-49.8,42.3-77.2,60.4c-21,13.8-41.4,28.6-62,43.1
	c-3.1,2.2-5.8,5-8.8,7.5c-1,0.8-2.2,1.4-3.3,2.1c-0.4-0.4-0.7-0.7-1.1-1.1c1-1.2,1.7-2.7,3-3.6c14.8-11.3,29.5-22.8,44.7-33.7
	c21-15,42.3-29.4,63.5-44c1.9-1.3,3.7-3,5.5-4.5c3.6-3.1,4.8-7,2.9-10.8c-1.8-3.6-5.5-3.6-8.6-3c-5,1-10.2,2.2-14.8,4.5
	c-11.6,5.6-23.6,9.7-36.2,11.6c-8,1.2-13.9,5.1-18.5,11.7c-14,20.4-29.4,39.7-46.2,57.8c-1.3,1.4-2.2,3.5-2.9,5.4
	c-9.6,27.6-19.3,55.1-28.6,82.8c-1.7,5.2-1.9,11-2.2,16.6c-0.2,4.7-2.3,7.5-6.6,9.4c-7.6,3.5-15,7.6-22.6,11.4
	c-1,0.5-2.5,0.1-3.7,0.1c0.8-0.9,1.5-2.3,2.5-2.8c7.9-4.1,15.9-8,23.7-12.2c1.5-0.8,3.3-2.7,3.3-4.1c-0.4-17.1,7.6-32,12.7-47.6
	c5.9-18.2,12.2-36.3,18.6-54.5c0.9-2.7,2.5-5.4,4.4-7.5c15.2-16.6,29.8-33.8,42.1-52.6c6.7-10.2,15.3-15.8,27.6-17.9
	c10.1-1.7,19.6-6.3,29.4-9.5c5.6-1.9,11.1-4.3,16.8-5.4c8.4-1.7,12.6,1.8,13.7,10.7c7.2-5.8,14.3-11.2,21-17
	c17.7-15.3,34.9-31.1,52.9-46c11.7-9.7,24.5-18.3,38.7-24c12.4-5,22.3-1.7,27.2,9.4C442.1,114,441.7,118,442.2,121.9z"/>
</svg>
