<?xml version="1.0" encoding="utf-8"?>
<!-- Generator: Adobe Illustrator 20.0.0, SVG Export Plug-In . SVG Version: 6.00 Build 0)  -->
<svg version="1.1" id="레이어_1" xmlns="http://www.w3.org/2000/svg" xmlns:xlink="http://www.w3.org/1999/xlink" x="0px"
	 y="0px" viewBox="0 0 1200 1600" style="enable-background:new 0 0 1200 1600;" xml:space="preserve">
<style type="text/css">
	.st0{fill:#5AD2D2;}
	.st1{fill:none;}
	.st2{opacity:0.5;fill:#42210B;enable-background:new    ;}
	.st3{fill:#F3C460;}
	.st4{fill:#F5D080;}
	.st5{fill:#005CA9;}
	.st6{font-family:'NanumBarunGothic';}
	.st7{font-size:108.9285px;}
	.st8{fill:#AA0004;}
	.st9{fill:#FFAAAC;}
	.st10{fill:#FFFFFF;}
	.st11{font-family:'NanumBarunGothicBold';}
	.st12{font-size:79.5546px;}
	.st13{fill:#008000;}
	.st14{fill:none;stroke:#FFFFFF;stroke-width:2.5;}
	.st15{fill:#800000;}
	.st16{fill:#000080;}
	.st17{fill:#5567FF;}
	.st18{font-size:98.38px;}
	.st19{font-size:86.1598px;}
	.st20{fill:none;stroke:#000000;stroke-width:4;stroke-miterlimit:10;}
	.st21{font-size:120px;}
	.st22{fill:#007D7F;}
	.st23{fill:none;stroke:#FFFFFF;stroke-width:4;}
	.st24{fill:none;stroke:#000000;}
	.st25{font-size:60px;}
	.st26{font-size:85px;}
</style>
<title>가위바위보 설계도</title>
<g id="Background">
	<polygon class="st0" points="1200,929.7 -0.7,736.3 -0.7,0 1200,0 	"/>
	<polygon class="st1" points="-0.7,738.4 1200,931.7 1200,1668 -0.7,1668 	"/>
</g>
<g id="result">
	<g id="win">
		<g>
			<g>
				<path class="st2" d="M67.5,1037l57.8,328.3c0,0,214.3-3.5,324.2-55.5L67.5,1037z"/>
				<path class="st3" d="M67.5,1037c0,0,52,243.8,80,306.4c0,0,145.8,20.2,302-33.6l-63.1-335L67.5,1037z"/>
				<path class="st4" d="M78.2,1085.5c-6.6-29.2-10.7-48.5-10.7-48.5l318.9-62.1l8.4,44.9L78.2,1085.5z"/>
			</g>
			<g>
				<path class="st5" d="M215.1,1177.2c15.1-8.2,21.7-28.2,21.4-44.3c-0.3-14.8-11.5-41.6-30.9-35.7c-1.7,0.5-2.7,2.5-1.7,4.1
					c6.5,10.3,16.3,15.3,17.7,28.5c1.2,10.8-2.1,22.9-9.6,30.9c-8.4,8.9-18.5,4.5-26.2-2.9c-13.9-13.3-8.1-38.8,10.3-45
					c2.5-0.8,1.9-4.2-0.6-4.4c-5.8-0.5-9.3-1.5-14.8,1.2c-5.3,2.7-9,6.6-12.3,11.5c-6.6,10.2-5.7,25.3-0.6,35.8
					C176.2,1174.7,196.5,1187.3,215.1,1177.2z"/>
				<path class="st5" d="M191.9,1139c-1.3,1.8-1.2,4.2-0.8,6.2c0.5,2.8,3.6,4.7,6.2,4.7c2.6,0,5-1.7,6-4.1c0.6-0.9,0.9-1.9,1-3.1
					c0.2-0.8,0.2-1.6-0.1-2.5c-0.4-1.5-1.4-2.7-2.7-3.5c-1.2-0.7-2.4-1.2-3.8-1.2c-0.6,0-1.3,0.1-1.9,0.3
					C194.1,1136.3,192.9,1137.7,191.9,1139z"/>
				<path class="st5" d="M306.5,1152.1c33.2-5.2,35.2-60,9.7-75.6c-1.7-1.1-3.6,1-2.7,2.7c8.5,15.4,19.3,50-4.7,58.1
					c-11.8,4-24.9-5.2-30.4-15c-2.7-4.9-3.3-10.9-2.3-16.3c0.8-4.3,5.5-12.6,9.5-14.8c2.5-1.4,0.7-4.8-1.8-4.3
					c-4,0.7-6.8,0.1-10.8,1.9c-3.6,1.7-6.1,5.4-8.1,8.7c-4.5,7.6-4.3,16.9-2.3,25.1C267.3,1141.2,287.5,1155.1,306.5,1152.1z"/>
				<path class="st5" d="M295.3,1121.8c1.9,0,3.8-0.8,5.1-2.1c0.9-0.9,1.5-2,1.9-3.2c0.3-1.3,0.3-2.6,0-3.9
					c-0.1-0.4-0.1-0.8-0.2-1.1c-0.3-1.2-0.9-2.2-1.8-3.1c-1.3-1.3-3.1-2.1-5-2.1c-1.3,0-2.5,0.3-3.6,1c-1.4,0.8-3,2.5-3.3,4.2
					c-0.1,0.4-0.1,0.8-0.2,1.1c-0.3,2-0.3,3.8,0.7,5.6C290.3,1120.4,292.7,1121.8,295.3,1121.8z"/>
				<path class="st5" d="M358.4,1178.5c-1.7-4.7-8.4-5.2-10,0c-0.1,0.5-0.2,1-0.4,1.5c-26.4,3.7-52.8,12.7-78.5,19.3
					c-15.2,3.9-30.5,7.5-45.9,10.6c-12.2,2.5-26.3,3.4-38.1,8c-3.4-0.3-7.1,2.9-6.2,7c6.7,30,29.3,56,54.1,73
					c25,17.2,55.9,21.4,83.8,8.9c22.1-9.9,34.2-32.5,39.7-55c3-12.1,4.1-24.7,4.6-37.2C362,1202.4,362.7,1190,358.4,1178.5z
					 M346,1208.3c-0.1,10.5-0.8,21-2.5,31.3c-3.3,20-11.2,39.4-29.3,50c-23.2,13.7-50.8,7.2-72.3-6.3c-21.9-13.7-37.6-35-49.7-57.4
					c9.7,0.7,20.1-1.4,29.2-2.6c15.5-2.1,31-5.3,46.3-8.6c15.1-3.2,30-6.8,45-10.5c11-2.7,22.4-4.7,33.5-7.7
					C346,1200.4,346.1,1204.3,346,1208.3z"/>
			</g>
		</g>
		<rect x="596" y="1123.2" class="st1" width="541.6" height="123.8"/>
		<text transform="matrix(1 0 0 1 635.4898 1214.8799)" class="st5 st6 st7">You Win!</text>
	</g>
	<g id="lose">
		<g>
			<g>
				<path class="st2" d="M415.9,1011l-9.6,340.3L81.8,1335c0,0,34.6-208.3,39.1-272.3C125.5,998.7,415.9,1011,415.9,1011z"/>
				<path class="st3" d="M416,1005.2c0,0-14.6,292.9-25.9,336l-327.7-18.6c0,0,53.7-200.5,38.8-325L416,1005.2z"/>
				<path class="st4" d="M104.1,1046.9c-0.2-13.6-1.5-36.9-3-49.2l314.8,7.6c0,0-1.4,29.6-2.7,52.4L104.1,1046.9z"/>
			</g>
			<g>
				<path class="st8" d="M221.2,1177.4c3.7,0.3,6.1-4.4,4.2-7.4c-5.7-9.3-13.9-14.9-22.3-21.6c-9.6-7.8-18.7-16.1-26.9-25.4
					c-9.3-10.6-25.2,5.2-15.5,15.5c8.4,8.9,17.6,16.9,27.5,24.1C198.5,1169.9,208.4,1176.5,221.2,1177.4z"/>
				<path class="st8" d="M344.6,1123.1c-10.8,6.9-21.5,14.2-32.3,21.3c-10,6.6-21.6,13.4-29.2,22.8c-5.4,6.7,1.2,15.4,9,11.7
					c10.4-4.9,19.9-12.1,29.9-17.9c11.1-6.5,22.7-12.2,33.6-19C367.5,1134.5,356.5,1115.6,344.6,1123.1z"/>
				<path class="st8" d="M289.9,1123.4c19.7,10.2,46.4-15.6,56.6-30.2c5.5-7.8-7.1-17.5-13.2-10.2c-6.1,7.2-11.8,14.4-19.4,20.1
					s-17.7,7.6-24.8,13.8C287.1,1118.7,287.6,1122.3,289.9,1123.4z"/>
				<path class="st8" d="M197,1115.5c4.9,3.4,10.9,5.9,16.8,6.8c6.5,1,11.3-0.8,17.5-2.2c4-0.9,3.8-6.8,0-7.9
					c-7.2-2-16.8-7.3-22.7-11.9c-7.5-5.9-10.2-15.2-17.6-20.7c-5.9-4.4-12.2,1.8-13,7.4C176.6,1098.4,188.7,1109.7,197,1115.5z"/>
				<path class="st8" d="M318.3,1240.5c-17.4,5.3-34.8,11-52,17l0,0c-1.6-4.8-4-9.3-5.6-14.1c-0.8-2.3-1.3-4.7-1.7-7
					c7-0.8,14.1-1.8,21.2-3.1c0,4,0.5,8.1,2.8,11.1c5,6.6,14,4.1,15-4.1c0.4-3.5-1.1-7-1.9-10.3v-0.1c5.9-1.5,11.6-3.2,17.2-5.2
					c13.1-4.7,8-24.4-5.8-21c-22.2,5.4-43.9,11-66.4,14.8c-11.3,1.9-22.6,3.1-33.9,4.5c-11,1.4-23.7,0.8-34.1,4.8
					c-4.4,1.7-4.4,7.3,0,9c1,0.4,2,0.7,3,1c-0.9,1-1.6,2.2-1.6,3.6c-0.4,8,1.4,16.2,1.7,24.2c0.4,9.6-0.3,19-1,28.5
					c-0.8,10,10.4,12.1,16.5,7.1c20.4-3.3,40.8-12.9,60.2-19.3c23.9-7.9,48.1-15,72.4-21.3C336.8,1257.2,331.1,1236.7,318.3,1240.5z
					 M203,1239.8c0,3.5,0.5,7.1,0.8,10.5c0.8,7.3,1.4,14.7,3.1,21.9c0.6,2.7,2,4.6,3.6,5.8c-5.1,2.2-10.2,4.6-14.9,7.3
					c0.5-15.4-2.1-34.5-11-45.9C190.7,1240.1,197,1239.9,203,1239.8z M227.6,1271.4c0.3-1.5,0.4-3.1,0-4.9
					c-1.4-6.3-3.1-12.5-4.7-18.7c-0.7-2.7-1.3-5.5-2.1-8.3c7.6-0.3,15.1-0.9,22.6-1.5c0.3,0,0.6-0.1,0.8-0.1
					c-0.5,8.9,2,18.8,6.4,25.2c-1.3,0.5-2.7,1-4,1.4C240.5,1266.8,234.1,1269,227.6,1271.4z"/>
			</g>
		</g>
		<rect x="596" y="1123.2" class="st1" width="541.6" height="123.8"/>
		<text transform="matrix(1 0 0 1 627.8111 1214.8799)" class="st8 st6 st7">You Lose!</text>
	</g>
	<g id="draw">
		<g>
			<g>
				<path class="st2" d="M97.4,1010.2l1.6,340.4l324.8-8.7c0,0-29.7-209-32.7-273.1C388.1,1004.7,97.4,1010.2,97.4,1010.2z"/>
				<path class="st3" d="M97.5,1004.4c0,0,7.7,293.2,18,336.5l328.1-10.9c0,0-49-201.8-31.2-325.8L97.5,1004.4z"/>
				<path class="st4" d="M408.3,1053.4c0.6-13.6,2.3-36.8,4.1-49.1l-314.9,0.2c0,0,0.7,29.6,1.4,52.4L408.3,1053.4z"/>
			</g>
			<g>
				<path d="M350.2,1124.4c-10.5-2.1-22.2-0.2-32.6,1.2c-9.7,1.2-23.5,1.4-31.2,8.2c-1.2,1.1-0.8,3,0.5,3.8c8.4,5,21.4,2.6,30.7,2.1
					c0.4,0,0.7,0,1.1,0c-1.1,2.6-1.2,5.8-1.4,8.7c-0.3,3.7-0.4,7.4-0.2,11.1c0.2,4.9,3.9,9,9,9c6.2,0,9.7-5.7,8.7-11.4
					c-0.6-3.2-1.3-6.5-2.1-9.7c-0.7-2.6-1.2-5.5-2.4-8c6,0,12,0,18-0.3C356.3,1138.8,358.8,1126.1,350.2,1124.4z"/>
				<path d="M203.6,1183.2c4.6-2.7,5.2-7.8,3.2-12.3c1.3,3-0.1-1.3-0.3-2.2c-0.6-2.2-1.1-4.4-1.6-6.6c-0.8-3.4-1.6-7.3-3.5-10.4
					c11.9-0.7,23.9-1.7,35.8-2.5c10.7-0.7,10.6-17.5,0-16.6c-13.7,1.1-27.3,2.8-41,4.3c-13.2,1.5-28.4,0.9-40.7,6.3
					c-2.4,1-2.4,5.3,0,6.3c10.5,4.4,22.9,3.5,34.2,2.9c-1.6,3.9-1.4,8.9-1.1,13c0.3,5.1,0.7,9.9,2.8,14.6
					C193.3,1184.4,199.8,1185.4,203.6,1183.2z"/>
				<path d="M342.9,1247.4c-1.2,0.9-2.3,1.9-3.4,3c-23-15.1-52.2-21.8-79.5-21.2c-23.2,0.6-57.6,14.1-55.4,42.3
					c-3.9-0.3-7.8,0.6-11,3.5c-1.7,1.6-0.6,3.9,1.2,4.7c2.9,1.2,6.2,1.5,8.9,3c2.9,1.5,4.1,4.3,5.8,6.9c1.8,2.6,4.6,4,7.8,3.2
					c3.3-0.9,6.2-5,4.8-8.5c-1.8-4.4-5.7-8.3-10.2-10.6c4.6-10.1,7-19,17.2-25.3c10.1-6.2,22.9-7,34.5-6.5
					c21.4,0.9,49.1,8.7,65,23.7c0.1,0.1,0.3,0.3,0.4,0.4c-0.4,0.8-0.8,1.6-1.1,2.4c-3.8,8.3,8.2,15.7,12.5,7.3
					c3.8-7.5,7-17.4,6.8-25.9C347.1,1247.9,344.7,1246.1,342.9,1247.4z"/>
			</g>
		</g>
		<rect x="596" y="1123.2" class="st1" width="541.6" height="123.8"/>
		<text transform="matrix(1 0 0 1 708.9615 1214.8799)" class="st6 st7">Draw!</text>
	</g>
	<g id="init">
		<rect y="1460" class="st9" width="1200" height="140"/>
		<text transform="matrix(1 0 0 1 459.672 1561.8635)" class="st10 st11 st12">돌아가기</text>
	</g>
</g>
<g id="selection">
	<g id="scissor">
		<circle class="st13" cx="963.6" cy="1367.8" r="216.2"/>
		<path class="st14" d="M885.1,1512.3c0.2,0.4,0.2,0.9,0.4,1.3c1.3,0,2.4-0.4,3.5-0.9c5.5-2.9,10.8-6,16.3-8.8
			c1.3-0.7,2.9-1.3,4.4-1.8c3.7-0.7,7.5-1.8,11-3.1c7.7-4,15.2-8.2,22.7-12.8c19.2-12.1,35.3-27.8,52.9-42.1
			c0.9-0.7,1.5-1.8,1.8-2.9c0.4-2.9,2.4-5.5,5.1-6.6c3.5-2,7.3-3.7,11-5.3c13-5.1,18.5-22.9,8.4-32.9c-1.3-1.1-1.5-3.3-0.4-4.6
			l0.2-0.2c2-2.9,3.7-6,5.5-9c2.2-3.7,2.6-8.4,1.1-12.4c-2.2-5.7-6.6-9.5-11.5-12.4c-3.7-2.4-7.7-4.4-12.6-2.4
			c-0.7,0.2-1.8-0.7-2.6-1.1c0.4-0.9,0.4-2,1.1-2.4c2-1.5,4-2.9,6-4.2c14.1-7.7,28.2-15.4,40.8-25.6c14.1-11.5,30.2-21,45.2-31.3
			c3.7-2.6,7.7-5.1,11.2-7.9c1.5-1.3,2.4-2.9,2.9-4.9c1.8-8.8-6.4-19.4-17-16.5c-10.6,2.6-20.7,6.8-30.2,12.4
			c-4.9,2.9-9.7,5.3-14.6,7.9c-17.9,9.7-36.6,18.3-52.5,31.1c-2.9,2.4-6.4,4.4-9.5,6.4c-2.2,1.5-3.7,0.9-4.9-1.5
			c-2.2-4.9-2.2-10.4-0.2-15.2c3.3-9.5,6-19,9.7-28c6.8-16.1,14.3-31.8,21.4-47.6c2.2-4.4,4-9,5.3-13.7c1.5-5.1-0.4-10.4-4.6-13.5
			c-4-3.1-9.5-3.1-13.5-0.2c-2.9,1.8-5.5,4-7.5,6.8c-15.7,22.1-31.5,44.1-42.6,69.3c-3.3,7.5-6.6,15-10.4,22.3
			c-2.2,4.4-5.1,8.4-8.4,11.9c-3.7,4.2-7.1,8.8-9.5,13.9c-2.2,4-4.6,7.9-7.5,11.5c-4.4,5.5-9.7,10.6-14.1,16.3
			c-16.3,21.2-32.4,42.6-49,64c-2,2.4-4.4,4.6-7.3,6.2c-8.6,4.4-17.2,8.6-25.8,12.8c-0.7,0.4-1.5,0.9-2.2,1.3c0,0.4,0.2,0.7,0.2,1.1
			c0.9,0,1.8,0,2.6-0.2c8.6-4.2,17.2-8.6,25.8-12.8c3.3-1.5,6.2-4.2,8.4-7.3c4-5.5,8.2-11,12.1-16.5c15.9-21.4,31.5-43,49.8-62.6
			c3.5-3.7,6.6-8.2,8.8-13c1.8-4,4-7.5,6.8-10.6c5.1-5.1,9.3-11,12.1-17.4c1.8-3.7,3.5-7.3,5.1-11c11.2-27.6,28-51.6,45-75.4
			c2.2-3.1,4.9-6,8.2-7.9c7.5-4.4,14.8-0.2,15.2,8.4c0,2.4-0.4,4.9-1.3,7.1c-2.2,5.1-4.4,10.1-7.1,15
			c-12.1,22.7-20.5,47.2-28.7,71.5c-1.8,5.3-1.3,11,1.1,15.9c1.8,3.5,3.5,4.2,7.1,2.2c4.2-2.4,8.2-5.3,11.9-8.2
			c9.3-6.8,19-13,29.3-18.3c12.6-6.2,24.9-13.2,37.3-20.1c9-4.9,18.7-8.8,28.7-11.5c7.7-2.2,15,5.5,14.1,13c-0.2,2-1.3,3.7-2.9,5.1
			c-5.1,3.7-10.1,7.1-15.4,10.6c-14.1,9.7-28.7,19-42.1,29.6c-9.5,7.5-19.6,14.1-30.2,19.6c-3.3,1.8-6.6,3.3-9.9,5.3
			c-2.2,1.3-4.2,2.9-6.2,4.6c-0.9,0.9-1.3,2.2-1.1,3.3c0.9,1.3,2,2.4,3.3,3.1c0.9,0.4,2.2-0.2,3.1-0.2c2.2,0,4.6-0.4,6.2,0.7
			c4.2,2.2,7.9,5.1,11.2,8.2c4.4,4,5.3,10.6,2.2,15.7c-2,3.7-4.2,7.1-6.6,11c-3.7-3.1-7.1-5.7-10.6-8.6c-0.4-0.2-0.9-0.7-1.5-0.7
			c0,0.7-0.4,1.5-0.2,2c1.3,1.3,2.6,2.4,4,3.7c3.7,3.3,7.3,6.6,10.8,10.4c5.7,7.5,4.9,18.1-2.4,24.3c-0.7,0.4-1.3,1.3-1.8,1.1
			c-5.1-0.7-10.4,1.5-13.5,5.5c-2.9,3.3-7.9,5.5-8.2,11c0,0.7-1.1,1.5-1.8,2.2c-9.5,7.9-18.5,16.1-28.2,23.8
			c-17.9,14.1-35.5,28.2-58.5,33.7C899.4,1503.1,892.3,1508.6,885.1,1512.3z"/>
	</g>
	<g id="rock">
		<circle class="st15" cx="600.8" cy="1081.8" r="216.2"/>
		<path class="st14" d="M507.7,1235.1c0,0.4,0.2,0.9,0.2,1.5c1.1-0.2,2.4-0.4,3.5-0.9c14.1-9.5,29.3-17.4,45.2-23.8
			c11.5-4.4,23.2-8.4,33.7-15.2c7.5-4.6,15.2-8.8,23.2-12.6c11-5.1,21.2-11.9,29.8-20.5c13-13,27.1-25.1,42.1-36
			c5.5-4,10.8-8.6,16.1-13.2c1.1-1.3,2-2.6,2.9-4.2c2.2-3.1,3.5-7.1,6.2-9.5c6.4-5.5,7.7-12.1,6.2-19.9c-1.3-6.4-2.9-13-4.2-19.4
			c-1.8-9.5-4.4-18.5-10.1-26.5c-2-2.4-3.1-5.7-2.9-8.8c-0.2-2.4-0.9-4.6-2-6.6c-5.3-9.7-11.7-18.3-19.4-26.2
			c-1.3-1.1-1.8-3.1-1.3-4.6c0.7-3.1,1.5-6.8,0.4-9.7c-3.5-8.8-9.5-15.7-19.4-17.6c-10.4-1.8-21-2-31.3-0.4c-1.3,0.2-2.6,0-4-0.7
			c-3.5-2.4-7.9-3.1-11.9-1.5c-9.5,2.9-18.1,8.2-24.9,15.2c-0.7,0.7-1.3,1.3-1.8,2.2c-5.1,10.1-13,18.3-20.5,26.5
			c-12.6,13.9-21.4,30.7-25.6,48.7c-2.4,10.4-4.9,20.7-7.5,31.1c-0.4,3.1-1.5,6-3.1,8.6c-7.5,10.4-17,18.3-29.6,21.8
			c-6.4,1.8-12.8,3.1-19,5.5c-14.3,5.5-28.7,11.5-43,17.4c-0.9,0.2-1.3,1.3-1.8,2.2c0.2,0.2,0.7,0.4,0.9,0.9c0.9-0.4,2-0.7,2.9-1.1
			c9.5-4,18.5-8.2,28-11.7c9-3.7,18.5-7.1,28-9.5c12.8-3.1,24.5-10.4,32.6-20.5c2.2-2.9,4-6,5.1-9.5c2-6.2,3.1-12.4,4.9-18.5
			c2.4-9.5,4.4-19.2,7.5-28.5c5.1-15.2,14.1-27.8,24.9-39.5c5.1-5.1,9.5-10.6,13.2-16.8c6.6-12.1,17.4-18.1,29.6-22.5
			c3.3-1.1,7.1-0.7,9.7,1.3c1.5,0.9,3.1,1.3,4.9,1.1c7.3-0.2,14.8-1.1,22.1-0.9c10.1,0.2,19.2,3.3,24.9,12.8
			c3.1,4.6,3.3,10.4,0.7,15.2c-4.6-1.8-9.3-2.9-12.6-7.1c-1.8-2-4.4-3.1-7.1-3.1c-5.3,0-10.4,0.2-15.7,0.9c-2,0.2-4,0.4-6,0.7
			c0,0.4,0,0.7,0,1.1c1.1,0.2,2.4,0.4,3.5,0.4c4.6-0.4,9.5-1.1,14.1-1.5c5.1-0.7,10.1,1.8,12.8,6.4c1.1,2,2.4,3.7,3.7,5.5
			c0.9,1.3,1.8,2.6,2.9,3.7c0.4,0.4,1.5,0.4,2.4,0.7c-0.2-0.7-0.4-1.3-0.9-2c-1.3-1.8-2.6-3.5-4-5.3c0.2-0.2,0.4-0.4,0.7-0.9
			c2.9,1.5,6.2,2.4,8.4,4.6c7.9,7.7,14.6,16.8,19.6,26.7c0.7,2,1.3,3.7,1.5,5.7c-0.4,0.2-0.9,0.4-1.3,0.7c-2.6-2.6-4.9-5.5-7.1-8.6
			c-2.2-4.6-6.6-7.7-11.7-8.4c-4.4-0.7-8.4-2-12.8-2.6c-0.7,0-1.5,0.2-2.2,0.4c1.5,1.1,2.2,2,3.1,2.2c3.3,0.9,6.6,1.5,9.9,2
			c5.5,0.2,10.6,3.7,12.4,9c1.1,2.9,2.6,5.7,4,8.4c0.7,0.9,1.3,1.8,2.2,2.6c0.2-0.2,0.7-0.4,0.9-0.4l-1.5-4.2
			c6.2,4.9,13.9,18.3,14.1,24.5c-0.9-1.3-1.3-2.2-2-3.3c-0.4,0.2-0.7,0.2-1.1,0.4c0,1.3,0.4,2.6,1.1,3.7c3.7,5.3,5.7,10.6,4.2,17.2
			c-0.4,2,0,3.5,2.6,2.2c0.7,2.6,1.1,5.1,1.8,7.5c1.8,7.7,0.2,14.3-6.2,19.4c-2.2,1.8-4,4-4.9,6.6c-1.3,4-4,7.5-7.3,9.9
			c-2.6,2.2-5.5,4.6-8.4,6.6c-17.4,12.4-33.5,26-48.5,41c-6.6,6.6-14.3,11.9-22.7,15.9c-8.8,4.4-17.4,9.3-26,13.7
			c-7.5,4-15.2,7.9-22.7,11.5c-5.1,2.2-10.4,4.2-15.4,6C536.3,1217.2,522.2,1226.5,507.7,1235.1z"/>
	</g>
	<g id="paper">
		<circle class="st16" cx="236.4" cy="1367.8" r="216.2"/>
		<path class="st14" d="M338.8,1239.7c2.6-2.4,5.3-4.9,8.2-6.8c2.9-2.2,6.2-4,9.7-5.1c7.1-2,14.3,2,16.3,9c0.9,2.9,0.7,6-0.4,8.6
			c-1.5,3.5-3.5,7.1-6,10.1c-0.7,0.9-1.3,1.8-2.2,2.6c8.2,0.2,11.7,5.3,13.9,11.9c1.3,4,0.7,8.2-2,11.5
			c-8.6,12.1-17.2,24.7-25.8,36.8c-0.2,0.4-0.4,0.9-0.2,1.3l4.6-5.1c4.4-4.9,9-6.4,13.2-4.4s7.1,9,5.7,14.3c-0.9,3.3-2,6.6-3.5,9.7
			c-6.2,12.4-15,23.2-24,33.5c-8.8,10.1-17.6,20.1-26.2,30.2c-4.9,6-9.5,12.1-13.7,18.5c-5.5,9.3-12.4,17.6-20.5,24.9
			c-18.7,16.8-37.5,33.7-58.2,48.7c-10.1,7.7-21.4,13.9-33.3,18.3c-5.5,2-10.8,4.9-16.1,7.1c-1.3,0.4-2.6,0.7-4,0.7
			c0-0.4-0.2-0.9-0.2-1.1c4.4-2.2,8.8-4.2,13.2-6c20.5-6.8,37.9-18.7,54.3-32.6c16.8-14.1,33.1-28.9,49.6-43.5
			c2.9-2.4,5.3-5.3,7.1-8.6c9.7-17.2,22.9-31.3,35.7-46.1c10.8-12.4,22.1-24.5,30.2-38.8c2.6-4.6,4.9-9.7,6.6-14.8
			c1.3-3.7-0.4-7.3-2.4-10.6s-6.6-3.3-9.9-0.4c-2.2,2-4,4.2-6,6.2c-12.4,12.6-24.7,25.4-37.3,37.7c-7.7,7.5-14.3,16.1-19.9,25.4
			c-0.7,1.1-1.3,2.2-2,3.3c-0.7,0.7-1.3,1.1-2,1.5c0-0.9-0.2-2,0.2-2.4c4.2-6.4,8.2-12.8,12.8-18.7c2.9-3.7,6.2-7.1,9.7-10.1
			c10.8-9.7,20.5-20.5,29.1-32.2c11-14.1,20.7-28.9,30.7-43.7c3.7-6.6,1.3-15-5.3-18.7l0,0c-3.5-1.8-7.7-0.7-10.1,2.4
			c-9,10.1-17.9,20.5-27.4,30.7c-13,13.9-25.6,28-40.6,39.9c-3.7,2.9-6.4,7.1-9.5,10.6c-0.4,0.4-1.1,1.1-1.8,1.5
			c-0.2-0.2-0.4-0.4-0.9-0.7c0.4-1.1,0.9-2.2,1.5-3.1c2.4-3.1,5.1-6.2,7.9-8.8c21-17.2,38.6-37.5,56.7-57.6
			c6.4-7.1,12.8-14.1,18.7-21.2c2.2-2.4,4.2-5.3,5.7-8.4c3.7-7.9-1.8-17.2-9.7-17c-4,0-7.9,1.3-11,4c-25.8,21.6-51.4,43.7-74.8,67.9
			c-6.6,6.8-14.1,12.8-21.2,19c-1.1,0.9-2.4,1.5-3.7,2c-0.2-0.2-0.4-0.4-0.7-0.7c0.4-0.7,0.7-1.1,1.3-1.8
			c7.5-6.6,15.4-12.6,22.3-19.6c18.5-19.4,39-36.6,58.7-54.7c1.5-1.5,2.9-3.3,4-5.3c2.2-4,1.1-7.5-1.8-10.8
			c-2.4-3.1-6.4-4.4-10.4-3.5c-2.9,0.7-5.5,1.5-8.2,2.9c-10.1,5.1-19.6,11.7-28,19.4c-3.5,3.3-7.5,6.4-11.2,9.7
			c-6,5.3-12.1,10.4-18.1,15.7c-17.6,15.7-36.2,30.2-55.4,43.5c-15.2,9.9-29.8,20.5-44.8,31.1c-2.2,1.5-4.2,3.5-6.4,5.5
			c-0.7,0.4-1.5,1.1-2.4,1.5l-0.9-0.9c0.7-0.9,1.3-1.8,2.2-2.6c10.6-8.2,21.2-16.5,32.2-24.3c15.2-10.8,30.4-21.2,45.9-31.8
			c1.3-0.9,2.6-2.2,4-3.3c2.4-1.8,3.3-5.1,2.2-7.7c-1.3-2.6-4-2.6-6.2-2.2c-3.7,0.7-7.3,1.8-10.6,3.3c-8.2,4.2-17,7.1-26.2,8.4
			c-5.5,0.7-10.1,3.7-13.2,8.4c-10.1,14.8-21.2,28.7-33.3,41.7c-0.9,1.1-1.5,2.4-2,4c-6.8,19.9-13.9,39.7-20.5,59.6
			c-1.1,4-1.5,7.9-1.5,11.9c0,3.1-2,5.7-4.9,6.8c-5.5,2.4-10.8,5.5-16.3,8.2c-0.9,0.2-1.8,0.2-2.6,0c0.7-0.7,1.1-1.8,1.8-2
			c5.7-2.9,11.5-5.7,17-8.8c1.1-0.7,2.4-2,2.4-2.9c-0.2-12.4,5.5-23.2,9-34.2c4.2-13.2,8.8-26.2,13.5-39.3c0.7-2,1.8-3.7,3.1-5.5
			c11-11.7,21.2-24.5,30.2-37.9c4.4-7.1,11.7-11.7,19.9-13c7.3-1.3,14.1-4.6,21.2-6.8c4-1.5,7.9-2.9,12.1-4c6-1.3,9,1.3,9.9,7.7
			c5.3-4.2,10.4-8.2,15.2-12.1c12.8-11,25.1-22.5,38.2-33.1c8.4-7.3,17.6-13,27.8-17.2c8.8-3.5,16.1-1.3,19.6,6.8
			C338.3,1234.4,338.8,1237,338.8,1239.7z"/>
	</g>
</g>
<g id="submit">
	<g id="confirm">
		<rect x="-0.5" y="1443.2" class="st17" width="600" height="156.8"/>
		<text transform="matrix(1 0 0 1 212.2453 1552.8384)" class="st10 st11 st18">확인</text>
	</g>
	<g id="cancel">
		<rect x="599.5" y="1443.2" class="st9" width="600.5" height="156.8"/>
		<text transform="matrix(1 0 0 1 812.2448 1552.8386)" class="st10 st11 st18">취소</text>
	</g>
	<text transform="matrix(1 0 0 1 746.0541 1167.3604)" class="st11 st19">포인트 베팅</text>
	<path class="st20" d="M671.9,1205.1H86.8c-27.3,0-49.2-22.1-49.2-49.2v-38.6c0-27.3,22.1-49.2,49.2-49.2H672
		c27.3,0,49.2,22.1,49.2,49.2v38.6C721.3,1183,699.2,1205.1,671.9,1205.1z"/>
</g>
<g id="ui">
	<text transform="matrix(1 0 0 1 168.5749 150.2895)" class="st11 st21">컴퓨터</text>
	<g id="username">
		<text transform="matrix(1 0 0 1 704.8826 150.2898)" class="st11 st21">Name</text>
	</g>
	<g id="question">
		<circle class="st22" cx="330.7" cy="410.1" r="197.9"/>
		<path class="st23" d="M242.6,375.4c0.4-7.3,3.6-44,33.5-67.6c30.7-24.2,84-29.9,112.5,2.4c22.4,25.2,26.7,70.3,1.4,96.3
			c-21.6,22.2-53.7,19.4-58.6,18.8v55.9"/>
		<circle class="st10" cx="331.5" cy="515.3" r="11.7"/>
	</g>
	<g id="myselect">
		<circle class="st24" cx="872.4" cy="410.1" r="197.9"/>
	</g>
	<text transform="matrix(1 0 0 1 561.015 431.29)" class="st11 st25">VS</text>
	<text id="my_rate" transform="matrix(1 0 0 1 856.4864 788.4155)" class="st11 st26">10%</text>
	<text id="my_point" transform="matrix(1 0 0 1 856.4869 696.416)" class="st11 st26">5000</text>
	<text transform="matrix(1 0 0 1 389.1672 696.4158)" class="st11 st26">보유 포인트: </text>
	<text transform="matrix(1 0 0 1 541.8469 788.4158)" class="st11 st26">총 전적:</text>
</g>
</svg>
