<?xml version="1.0" encoding="utf-8"?>
<!-- Generator: Adobe Illustrator 20.0.0, SVG Export Plug-In . SVG Version: 6.00 Build 0)  -->
<svg version="1.1" id="레이어_1" xmlns="http://www.w3.org/2000/svg" xmlns:xlink="http://www.w3.org/1999/xlink" x="0px"
	 y="0px" viewBox="0 0 1200 600" style="enable-background:new 0 0 1200 600;" xml:space="preserve">
<style type="text/css">
	.st0{fill:#5AD2D2;}
	.st1{fill:none;}
	.st2{opacity:0.5;fill:#42210B;enable-background:new    ;}
	.st3{fill:#F3C460;}
	.st4{fill:#F5D080;}
	.st5{fill:#005CA9;}
	.st6{font-family:'NanumBarunGothic';}
	.st7{font-size:60px;}
	.st8{fill:#AA0004;}
	.st9{fill:#FFAAAC;}
	.st10{fill:#FFFFFF;}
	.st11{font-family:'NanumBarunGothicBold';}
	.st12{font-size:48px;}
	.st13{fill:#008000;}
	.st14{fill:none;stroke:#FFFFFF;stroke-width:2.5;}
	.st15{fill:#800000;}
	.st16{fill:#000080;}
	.st17{fill:#5567FF;}
	.st18{fill:none;stroke:#000000;stroke-width:4;stroke-miterlimit:10;}
	.st19{fill:#007D7F;}
	.st20{fill:none;stroke:#FFFFFF;stroke-width:4;}
	.st21{fill:none;stroke:#000000;}
	.st22{font-size:30px;}
</style>
<title>가위바위보 설계도</title>
<g id="Background">
	<polygon class="st0" points="531.4,600 670.6,0 1200.6,0 1200.6,600 	"/>
	<polygon class="st1" points="669.1,0 530,600 0,600 0,0 	"/>
</g>
<g id="result">
	<g id="win">
		<g>
			<g>
				<path class="st2" d="M159.8,383.8l31.8,180.9c0,0,118.1-1.9,178.6-30.5L159.8,383.8z"/>
				<path class="st3" d="M159.8,383.8c0,0,28.6,134.3,44.1,168.8c0,0,80.3,11.1,166.4-18.5l-34.8-184.5L159.8,383.8z"/>
				<path class="st4" d="M165.6,410.6c-3.6-16.1-5.9-26.7-5.9-26.7l175.7-34.2l4.7,24.7L165.6,410.6z"/>
			</g>
			<g>
				<path class="st5" d="M241,461.1c8.3-4.5,11.9-15.5,11.8-24.4c-0.1-8.2-6.3-22.9-17-19.6c-0.9,0.3-1.5,1.4-0.9,2.3
					c3.6,5.7,9,8.4,9.8,15.7c0.6,6-1.2,12.6-5.3,17c-4.6,4.9-10.2,2.5-14.5-1.6c-7.6-7.3-4.4-21.4,5.7-24.8c1.4-0.5,1-2.3-0.3-2.4
					c-3.2-0.3-5.1-0.8-8.2,0.7c-2.9,1.5-5,3.6-6.8,6.4c-3.7,5.6-3.1,13.9-0.3,19.7C219.6,459.7,230.8,466.6,241,461.1z"/>
				<path class="st5" d="M228.2,440.1c-0.7,1-0.6,2.3-0.5,3.4c0.3,1.5,2,2.6,3.4,2.6s2.7-0.9,3.3-2.2c0.3-0.5,0.5-1.1,0.6-1.7
					c0.1-0.4,0.1-0.9,0-1.4c-0.2-0.8-0.8-1.5-1.5-1.9c-0.6-0.4-1.3-0.6-2.1-0.6c-0.4,0-0.7,0.1-1,0.1
					C229.4,438.6,228.8,439.3,228.2,440.1z"/>
				<path class="st5" d="M291.4,447.2c18.3-2.9,19.4-33.1,5.4-41.7c-1-0.6-2,0.6-1.5,1.5c4.7,8.5,10.6,27.5-2.6,32
					c-6.5,2.2-13.7-2.9-16.8-8.3c-1.5-2.7-1.8-6-1.3-9c0.4-2.4,3-7,5.2-8.2c1.4-0.8,0.4-2.6-1-2.4c-2.2,0.4-3.7,0-5.9,1
					c-2,0.9-3.4,3-4.5,4.8c-2.5,4.2-2.4,9.3-1.3,13.9C269.8,441.2,280.9,448.9,291.4,447.2z"/>
				<path class="st5" d="M285.2,430.5c1.1,0,2.1-0.4,2.8-1.2c0.5-0.5,0.8-1.1,1-1.8c0.2-0.7,0.2-1.4,0-2.1c0-0.2-0.1-0.4-0.1-0.6
					c-0.2-0.7-0.5-1.2-1-1.7c-0.7-0.7-1.7-1.1-2.8-1.1c-0.7,0-1.4,0.2-2,0.5c-0.8,0.5-1.7,1.4-1.8,2.3c0,0.2-0.1,0.4-0.1,0.6
					c-0.2,1.1-0.2,2.1,0.4,3.1C282.5,429.8,283.8,430.5,285.2,430.5z"/>
				<path class="st5" d="M320,461.8c-1-2.6-4.6-2.9-5.5,0c-0.1,0.3-0.1,0.5-0.2,0.8c-14.5,2-29.1,7-43.2,10.6
					c-8.4,2.2-16.8,4.1-25.3,5.9c-6.7,1.4-14.5,1.9-21,4.4c-1.9-0.2-3.9,1.6-3.4,3.8c3.7,16.5,16.2,30.8,29.8,40.2
					c13.8,9.5,30.8,11.8,46.1,4.9c12.2-5.5,18.8-17.9,21.9-30.3c1.6-6.7,2.3-13.6,2.5-20.5C322,474.9,322.3,468.1,320,461.8z
					 M313.1,478.2c-0.1,5.8-0.4,11.6-1.4,17.3c-1.8,11-6.2,21.7-16.2,27.5c-12.8,7.5-28,3.9-39.8-3.4c-12.1-7.5-20.7-19.3-27.4-31.6
					c5.3,0.4,11-0.8,16.1-1.4c8.6-1.2,17.1-2.9,25.5-4.7c8.3-1.8,16.5-3.7,24.8-5.8c6.1-1.5,12.4-2.6,18.4-4.2
					C313.1,473.9,313.2,476,313.1,478.2z"/>
			</g>
		</g>
		<rect x="450.8" y="431.3" class="st1" width="298.3" height="68.2"/>
		<text transform="matrix(1 0 0 1 472.5903 481.8305)" class="st5 st6 st7">You Win!</text>
	</g>
	<g id="lose">
		<g>
			<g>
				<path class="st2" d="M351.6,369.5l-5.3,187.4l-178.7-9c0,0,19.1-114.7,21.6-150C191.7,362.7,351.6,369.5,351.6,369.5z"/>
				<path class="st3" d="M351.7,366.4c0,0-8,161.3-14.2,185.1L157,541.3c0,0,29.6-110.5,21.4-179L351.7,366.4z"/>
				<path class="st4" d="M179.9,389.3c-0.1-7.5-0.8-20.3-1.6-27.1l173.4,4.2c0,0-0.8,16.3-1.5,28.8L179.9,389.3z"/>
			</g>
			<g>
				<path class="st8" d="M244.4,461.2c2.1,0.1,3.4-2.4,2.3-4.1c-3.1-5.1-7.6-8.2-12.3-11.9c-5.3-4.3-10.3-8.9-14.8-14
					c-5.1-5.8-13.9,2.8-8.6,8.6c4.6,4.9,9.7,9.3,15.2,13.2C231.9,457.1,237.3,460.7,244.4,461.2z"/>
				<path class="st8" d="M312.3,431.3c-6,3.8-11.9,7.8-17.8,11.7c-5.5,3.6-11.9,7.4-16.1,12.6c-3,3.7,0.6,8.5,5,6.5
					c5.7-2.7,11-6.7,16.5-9.9c6.1-3.6,12.5-6.7,18.5-10.5C325,437.6,318.9,427.1,312.3,431.3z"/>
				<path class="st8" d="M282.2,431.5c10.9,5.6,25.6-8.6,31.2-16.6c3-4.3-3.9-9.6-7.3-5.6s-6.5,7.9-10.7,11.1
					c-4.2,3.1-9.7,4.2-13.6,7.6C280.7,428.8,281,430.8,282.2,431.5z"/>
				<path class="st8" d="M231.1,427.1c2.7,1.9,6,3.3,9.2,3.8c3.6,0.6,6.2-0.4,9.7-1.2c2.2-0.5,2.1-3.8,0-4.3
					c-3.9-1.1-9.3-4-12.5-6.5c-4.1-3.2-5.6-8.4-9.7-11.4c-3.3-2.4-6.7,1-7.1,4.1C219.9,417.6,226.5,423.9,231.1,427.1z"/>
				<path class="st8" d="M297.9,496c-9.6,2.9-19.1,6-28.6,9.4l0,0c-0.9-2.6-2.2-5.1-3.1-7.7c-0.4-1.3-0.7-2.6-1-3.9
					c3.9-0.5,7.8-1,11.7-1.7c0,2.2,0.3,4.5,1.5,6.1c2.8,3.6,7.7,2.3,8.2-2.2c0.2-1.9-0.6-3.9-1.1-5.7l0,0c3.2-0.8,6.4-1.7,9.5-2.8
					c7.2-2.6,4.4-13.4-3.2-11.6c-12.2,3-24.2,6.1-36.6,8.2c-6.2,1.1-12.4,1.7-18.7,2.5c-6.1,0.8-13,0.4-18.8,2.6
					c-2.4,0.9-2.4,4,0,4.9c0.5,0.2,1.1,0.4,1.6,0.5c-0.5,0.5-0.9,1.2-0.9,2c-0.2,4.4,0.8,8.9,0.9,13.3c0.2,5.3-0.2,10.4-0.6,15.7
					c-0.4,5.5,5.7,6.7,9.1,3.9c11.2-1.8,22.5-7.1,33.1-10.6c13.2-4.4,26.5-8.3,39.9-11.8C308,505.2,304.9,493.8,297.9,496z
					 M234.3,495.6c0,1.9,0.3,3.9,0.5,5.8c0.4,4,0.8,8.1,1.7,12c0.4,1.5,1.1,2.5,2,3.2c-2.8,1.2-5.6,2.5-8.2,4
					c0.3-8.5-1.1-19-6.1-25.3C227.6,495.7,231.1,495.6,234.3,495.6z M247.9,513c0.2-0.8,0.2-1.7,0-2.7c-0.8-3.5-1.7-6.9-2.6-10.3
					c-0.4-1.5-0.7-3-1.1-4.5c4.2-0.2,8.3-0.5,12.5-0.8c0.2,0,0.3,0,0.5,0c-0.3,4.9,1.1,10.3,3.5,13.9c-0.7,0.3-1.5,0.5-2.2,0.8
					C255,510.4,251.5,511.7,247.9,513z"/>
			</g>
		</g>
		<rect x="450.8" y="431.3" class="st1" width="298.3" height="68.2"/>
		<text transform="matrix(1 0 0 1 468.3608 481.8305)" class="st8 st6 st7">You Lost!</text>
	</g>
	<g id="draw">
		<g>
			<g>
				<path class="st2" d="M176.2,369.1l0.9,187.5l178.9-4.8c0,0-16.4-115.1-18-150.4C336.3,366.1,176.2,369.1,176.2,369.1z"/>
				<path class="st3" d="M176.3,365.9c0,0,4.2,161.5,9.9,185.3l180.7-6c0,0-27-111.1-17.2-179.5L176.3,365.9z"/>
				<path class="st4" d="M347.4,392.9c0.3-7.5,1.3-20.3,2.3-27.1l-173.4,0.1c0,0,0.4,16.3,0.8,28.9L347.4,392.9z"/>
			</g>
			<g>
				<path d="M315.4,432c-5.8-1.2-12.2-0.1-18,0.6c-5.4,0.7-12.9,0.8-17.2,4.5c-0.7,0.6-0.4,1.7,0.3,2.1c4.6,2.8,11.8,1.4,16.9,1.2
					c0.2,0,0.4,0,0.6,0c-0.6,1.4-0.6,3.2-0.8,4.8c-0.2,2-0.2,4.1-0.1,6.1c0.1,2.7,2.1,4.9,4.9,4.9c3.4,0,5.3-3.1,4.8-6.3
					c-0.3-1.8-0.7-3.6-1.2-5.3c-0.4-1.5-0.6-3.1-1.3-4.4c3.3,0,6.6,0,9.9-0.1C318.8,439.9,320.2,433,315.4,432z"/>
				<path d="M234.7,464.4c2.5-1.5,2.9-4.3,1.8-6.8c0.7,1.7-0.1-0.7-0.2-1.2c-0.3-1.2-0.6-2.4-0.9-3.6c-0.4-1.9-0.9-4-1.9-5.7
					c6.6-0.4,13.1-0.9,19.7-1.4c5.9-0.4,5.9-9.6,0-9.1c-7.6,0.6-15.1,1.5-22.6,2.4c-7.3,0.8-15.7,0.5-22.4,3.5
					c-1.3,0.6-1.3,2.9,0,3.5c5.8,2.4,12.6,1.9,18.8,1.6c-0.9,2.2-0.7,4.9-0.6,7.1c0.1,2.8,0.4,5.5,1.5,8.1
					C229,465.1,232.6,465.6,234.7,464.4z"/>
				<path d="M311.4,499.7c-0.7,0.5-1.3,1.1-1.9,1.7c-12.7-8.3-28.8-12-43.8-11.7c-12.8,0.3-31.7,7.8-30.5,23.3
					c-2.2-0.2-4.3,0.3-6.1,1.9c-1,0.9-0.3,2.2,0.7,2.6c1.6,0.7,3.4,0.8,4.9,1.6c1.6,0.8,2.2,2.4,3.2,3.8c1,1.4,2.6,2.2,4.3,1.7
					c1.8-0.5,3.4-2.8,2.7-4.7c-1-2.4-3.1-4.6-5.6-5.9c2.5-5.5,3.9-10.5,9.5-13.9s12.6-3.9,19-3.6c11.8,0.5,27,4.8,35.8,13.1
					c0.1,0.1,0.2,0.1,0.2,0.2c-0.2,0.5-0.4,0.9-0.6,1.3c-2.1,4.6,4.5,8.7,6.9,4c2.1-4.1,3.9-9.6,3.7-14.3
					C313.7,500,312.4,499,311.4,499.7z"/>
			</g>
		</g>
		<rect x="450.8" y="431.3" class="st1" width="298.3" height="68.2"/>
		<text transform="matrix(1 0 0 1 513.0601 481.8305)" class="st6 st7">Draw!</text>
	</g>
	<g id="init">
		<path class="st9" d="M868.8,498H1027c14.5,0,26.3-11.8,26.3-26.3v-23.9c0-14.5-11.8-26.3-26.3-26.3H868.8
			c-14.5,0-26.3,11.8-26.3,26.3v23.9C842.5,486.3,854.2,498,868.8,498z"/>
		<text transform="matrix(1 0 0 1 863.2216 474.9828)" class="st10 st11 st12">돌아가기</text>
	</g>
</g>
<g id="selection">
	<g id="scissor">
		<circle class="st13" cx="903.5" cy="468.6" r="98"/>
		<path class="st14" d="M867.9,534.1c0.1,0.2,0.1,0.4,0.2,0.6c0.6,0,1.1-0.2,1.6-0.4c2.5-1.3,4.9-2.7,7.4-4c0.6-0.3,1.3-0.6,2-0.8
			c1.7-0.3,3.4-0.8,5-1.4c3.5-1.8,6.9-3.7,10.3-5.8c8.7-5.5,16-12.6,24-19.1c0.4-0.3,0.7-0.8,0.8-1.3c0.2-1.3,1.1-2.5,2.3-3
			c1.6-0.9,3.3-1.7,5-2.4c5.9-2.3,8.4-10.4,3.8-14.9c-0.6-0.5-0.7-1.5-0.2-2.1l0.1-0.1c0.9-1.3,1.7-2.7,2.5-4.1
			c1-1.7,1.2-3.8,0.5-5.6c-1-2.6-3-4.3-5.2-5.6c-1.7-1.1-3.5-2-5.7-1.1c-0.3,0.1-0.8-0.3-1.2-0.5c0.2-0.4,0.2-0.9,0.5-1.1
			c0.9-0.7,1.8-1.3,2.7-1.9c6.4-3.5,12.8-7,18.5-11.6c6.4-5.2,13.7-9.5,20.5-14.2c1.7-1.2,3.5-2.3,5.1-3.6c0.7-0.6,1.1-1.3,1.3-2.2
			c0.8-4-2.9-8.8-7.7-7.5c-4.8,1.2-9.4,3.1-13.7,5.6c-2.2,1.3-4.4,2.4-6.6,3.6c-8.1,4.4-16.6,8.3-23.8,14.1c-1.3,1.1-2.9,2-4.3,2.9
			c-1,0.7-1.7,0.4-2.2-0.7c-1-2.2-1-4.7-0.1-6.9c1.5-4.3,2.7-8.6,4.4-12.7c3.1-7.3,6.5-14.4,9.7-21.6c1-2,1.8-4.1,2.4-6.2
			c0.7-2.3-0.2-4.7-2.1-6.1c-1.8-1.4-4.3-1.4-6.1-0.1c-1.3,0.8-2.5,1.8-3.4,3.1c-7.1,10-14.3,20-19.3,31.4c-1.5,3.4-3,6.8-4.7,10.1
			c-1,2-2.3,3.8-3.8,5.4c-1.7,1.9-3.2,4-4.3,6.3c-1,1.8-2.1,3.6-3.4,5.2c-2,2.5-4.4,4.8-6.4,7.4c-7.4,9.6-14.7,19.3-22.2,29
			c-0.9,1.1-2,2.1-3.3,2.8c-3.9,2-7.8,3.9-11.7,5.8c-0.3,0.2-0.7,0.4-1,0.6c0,0.2,0.1,0.3,0.1,0.5c0.4,0,0.8,0,1.2-0.1
			c3.9-1.9,7.8-3.9,11.7-5.8c1.5-0.7,2.8-1.9,3.8-3.3c1.8-2.5,3.7-5,5.5-7.5c7.2-9.7,14.3-19.5,22.6-28.4c1.6-1.7,3-3.7,4-5.9
			c0.8-1.8,1.8-3.4,3.1-4.8c2.3-2.3,4.2-5,5.5-7.9c0.8-1.7,1.6-3.3,2.3-5c5.1-12.5,12.7-23.4,20.4-34.2c1-1.4,2.2-2.7,3.7-3.6
			c3.4-2,6.7-0.1,6.9,3.8c0,1.1-0.2,2.2-0.6,3.2c-1,2.3-2,4.6-3.2,6.8c-5.5,10.3-9.3,21.4-13,32.4c-0.8,2.4-0.6,5,0.5,7.2
			c0.8,1.6,1.6,1.9,3.2,1c1.9-1.1,3.7-2.4,5.4-3.7c4.2-3.1,8.6-5.9,13.3-8.3c5.7-2.8,11.3-6,16.9-9.1c4.1-2.2,8.5-4,13-5.2
			c3.5-1,6.8,2.5,6.4,5.9c-0.1,0.9-0.6,1.7-1.3,2.3c-2.3,1.7-4.6,3.2-7,4.8c-6.4,4.4-13,8.6-19.1,13.4c-4.3,3.4-8.9,6.4-13.7,8.9
			c-1.5,0.8-3,1.5-4.5,2.4c-1,0.6-1.9,1.3-2.8,2.1c-0.4,0.4-0.6,1-0.5,1.5c0.4,0.6,0.9,1.1,1.5,1.4c0.4,0.2,1-0.1,1.4-0.1
			c1,0,2.1-0.2,2.8,0.3c1.9,1,3.6,2.3,5.1,3.7c2,1.8,2.4,4.8,1,7.1c-0.9,1.7-1.9,3.2-3,5c-1.7-1.4-3.2-2.6-4.8-3.9
			c-0.2-0.1-0.4-0.3-0.7-0.3c0,0.3-0.2,0.7-0.1,0.9c0.6,0.6,1.2,1.1,1.8,1.7c1.7,1.5,3.3,3,4.9,4.7c2.6,3.4,2.2,8.2-1.1,11
			c-0.3,0.2-0.6,0.6-0.8,0.5c-2.3-0.3-4.7,0.7-6.1,2.5c-1.3,1.5-3.6,2.5-3.7,5c0,0.3-0.5,0.7-0.8,1c-4.3,3.6-8.4,7.3-12.8,10.8
			c-8.1,6.4-16.1,12.8-26.5,15.3C874.4,529.9,871.2,532.4,867.9,534.1z"/>
	</g>
	<g id="rock">
		<circle class="st15" cx="610.2" cy="468.6" r="98"/>
		<path class="st14" d="M568,538.1c0,0.2,0.1,0.4,0.1,0.7c0.5-0.1,1.1-0.2,1.6-0.4c6.4-4.3,13.3-7.9,20.5-10.8
			c5.2-2,10.5-3.8,15.3-6.9c3.4-2.1,6.9-4,10.5-5.7c5-2.3,9.6-5.4,13.5-9.3c5.9-5.9,12.3-11.4,19.1-16.3c2.5-1.8,4.9-3.9,7.3-6
			c0.5-0.6,0.9-1.2,1.3-1.9c1-1.4,1.6-3.2,2.8-4.3c2.9-2.5,3.5-5.5,2.8-9c-0.6-2.9-1.3-5.9-1.9-8.8c-0.8-4.3-2-8.4-4.6-12
			c-0.9-1.1-1.4-2.6-1.3-4c-0.1-1.1-0.4-2.1-0.9-3c-2.4-4.4-5.3-8.3-8.8-11.9c-0.6-0.5-0.8-1.4-0.6-2.1c0.3-1.4,0.7-3.1,0.2-4.4
			c-1.6-4-4.3-7.1-8.8-8c-4.7-0.8-9.5-0.9-14.2-0.2c-0.6,0.1-1.2,0-1.8-0.3c-1.6-1.1-3.6-1.4-5.4-0.7c-4.3,1.3-8.2,3.7-11.3,6.9
			c-0.3,0.3-0.6,0.6-0.8,1c-2.3,4.6-5.9,8.3-9.3,12c-5.7,6.3-9.7,13.9-11.6,22.1c-1.1,4.7-2.2,9.4-3.4,14.1
			c-0.2,1.4-0.7,2.7-1.4,3.9c-3.4,4.7-7.7,8.3-13.4,9.9c-2.9,0.8-5.8,1.4-8.6,2.5c-6.5,2.5-13,5.2-19.5,7.9c-0.4,0.1-0.6,0.6-0.8,1
			c0.1,0.1,0.3,0.2,0.4,0.4c0.4-0.2,0.9-0.3,1.3-0.5c4.3-1.8,8.4-3.7,12.7-5.3c4.1-1.7,8.4-3.2,12.7-4.3c5.8-1.4,11.1-4.7,14.8-9.3
			c1-1.3,1.8-2.7,2.3-4.3c0.9-2.8,1.4-5.6,2.2-8.4c1.1-4.3,2-8.7,3.4-12.9c2.3-6.9,6.4-12.6,11.3-17.9c2.3-2.3,4.3-4.8,6-7.6
			c3-5.5,7.9-8.2,13.4-10.2c1.5-0.5,3.2-0.3,4.4,0.6c0.7,0.4,1.4,0.6,2.2,0.5c3.3-0.1,6.7-0.5,10-0.4c4.6,0.1,8.7,1.5,11.3,5.8
			c1.4,2.1,1.5,4.7,0.3,6.9c-2.1-0.8-4.2-1.3-5.7-3.2c-0.8-0.9-2-1.4-3.2-1.4c-2.4,0-4.7,0.1-7.1,0.4c-0.9,0.1-1.8,0.2-2.7,0.3
			c0,0.2,0,0.3,0,0.5c0.5,0.1,1.1,0.2,1.6,0.2c2.1-0.2,4.3-0.5,6.4-0.7c2.3-0.3,4.6,0.8,5.8,2.9c0.5,0.9,1.1,1.7,1.7,2.5
			c0.4,0.6,0.8,1.2,1.3,1.7c0.2,0.2,0.7,0.2,1.1,0.3c-0.1-0.3-0.2-0.6-0.4-0.9c-0.6-0.8-1.2-1.6-1.8-2.4c0.1-0.1,0.2-0.2,0.3-0.4
			c1.3,0.7,2.8,1.1,3.8,2.1c3.6,3.5,6.6,7.6,8.9,12.1c0.3,0.9,0.6,1.7,0.7,2.6c-0.2,0.1-0.4,0.2-0.6,0.3c-1.2-1.2-2.2-2.5-3.2-3.9
			c-1-2.1-3-3.5-5.3-3.8c-2-0.3-3.8-0.9-5.8-1.2c-0.3,0-0.7,0.1-1,0.2c0.7,0.5,1,0.9,1.4,1c1.5,0.4,3,0.7,4.5,0.9
			c2.5,0.1,4.8,1.7,5.6,4.1c0.5,1.3,1.2,2.6,1.8,3.8c0.3,0.4,0.6,0.8,1,1.2c0.1-0.1,0.3-0.2,0.4-0.2l-0.7-1.9
			c2.8,2.2,6.3,8.3,6.4,11.1c-0.4-0.6-0.6-1-0.9-1.5c-0.2,0.1-0.3,0.1-0.5,0.2c0,0.6,0.2,1.2,0.5,1.7c1.7,2.4,2.6,4.8,1.9,7.8
			c-0.2,0.9,0,1.6,1.2,1c0.3,1.2,0.5,2.3,0.8,3.4c0.8,3.5,0.1,6.5-2.8,8.8c-1,0.8-1.8,1.8-2.2,3c-0.6,1.8-1.8,3.4-3.3,4.5
			c-1.2,1-2.5,2.1-3.8,3c-7.9,5.6-15.2,11.8-22,18.6c-3,3-6.5,5.4-10.3,7.2c-4,2-7.9,4.2-11.8,6.2c-3.4,1.8-6.9,3.6-10.3,5.2
			c-2.3,1-4.7,1.9-7,2.7C581,530,574.6,534.2,568,538.1z"/>
	</g>
	<g id="paper">
		<circle class="st16" cx="296.5" cy="468.6" r="98"/>
		<path class="st14" d="M342.9,410.5c1.2-1.1,2.4-2.2,3.7-3.1c1.3-1,2.8-1.8,4.4-2.3c3.2-0.9,6.5,0.9,7.4,4.1
			c0.4,1.3,0.3,2.7-0.2,3.9c-0.7,1.6-1.6,3.2-2.7,4.6c-0.3,0.4-0.6,0.8-1,1.2c3.7,0.1,5.3,2.4,6.3,5.4c0.6,1.8,0.3,3.7-0.9,5.2
			c-3.9,5.5-7.8,11.2-11.7,16.7c-0.1,0.2-0.2,0.4-0.1,0.6l2.1-2.3c2-2.2,4.1-2.9,6-2s3.2,4.1,2.6,6.5c-0.4,1.5-0.9,3-1.6,4.4
			c-2.8,5.6-6.8,10.5-10.9,15.2c-4,4.6-8,9.1-11.9,13.7c-2.2,2.7-4.3,5.5-6.2,8.4c-2.5,4.2-5.6,8-9.3,11.3
			c-8.5,7.6-17,15.3-26.4,22.1c-4.6,3.5-9.7,6.3-15.1,8.3c-2.5,0.9-4.9,2.2-7.3,3.2c-0.6,0.2-1.2,0.3-1.8,0.3c0-0.2-0.1-0.4-0.1-0.5
			c2-1,4-1.9,6-2.7c9.3-3.1,17.2-8.5,24.6-14.8c7.6-6.4,15-13.1,22.5-19.7c1.3-1.1,2.4-2.4,3.2-3.9c4.4-7.8,10.4-14.2,16.2-20.9
			c4.9-5.6,10-11.1,13.7-17.6c1.2-2.1,2.2-4.4,3-6.7c0.6-1.7-0.2-3.3-1.1-4.8s-3-1.5-4.5-0.2c-1,0.9-1.8,1.9-2.7,2.8
			c-5.6,5.7-11.2,11.5-16.9,17.1c-3.5,3.4-6.5,7.3-9,11.5c-0.3,0.5-0.6,1-0.9,1.5c-0.3,0.3-0.6,0.5-0.9,0.7c0-0.4-0.1-0.9,0.1-1.1
			c1.9-2.9,3.7-5.8,5.8-8.5c1.3-1.7,2.8-3.2,4.4-4.6c4.9-4.4,9.3-9.3,13.2-14.6c5-6.4,9.4-13.1,13.9-19.8c1.7-3,0.6-6.8-2.4-8.5l0,0
			c-1.6-0.8-3.5-0.3-4.6,1.1c-4.1,4.6-8.1,9.3-12.4,13.9c-5.9,6.3-11.6,12.7-18.4,18.1c-1.7,1.3-2.9,3.2-4.3,4.8
			c-0.2,0.2-0.5,0.5-0.8,0.7c-0.1-0.1-0.2-0.2-0.4-0.3c0.2-0.5,0.4-1,0.7-1.4c1.1-1.4,2.3-2.8,3.6-4c9.5-7.8,17.5-17,25.7-26.1
			c2.9-3.2,5.8-6.4,8.5-9.6c1-1.1,1.9-2.4,2.6-3.8c1.7-3.6-0.8-7.8-4.4-7.7c-1.8,0-3.6,0.6-5,1.8c-11.7,9.8-23.3,19.8-33.9,30.8
			c-3,3.1-6.4,5.8-9.6,8.6c-0.5,0.4-1.1,0.7-1.7,0.9c-0.1-0.1-0.2-0.2-0.3-0.3c0.2-0.3,0.3-0.5,0.6-0.8c3.4-3,7-5.7,10.1-8.9
			c8.4-8.8,17.7-16.6,26.6-24.8c0.7-0.7,1.3-1.5,1.8-2.4c1-1.8,0.5-3.4-0.8-4.9c-1.1-1.4-2.9-2-4.7-1.6c-1.3,0.3-2.5,0.7-3.7,1.3
			c-4.6,2.3-8.9,5.3-12.7,8.8c-1.6,1.5-3.4,2.9-5.1,4.4c-2.7,2.4-5.5,4.7-8.2,7.1c-8,7.1-16.4,13.7-25.1,19.7
			c-6.9,4.5-13.5,9.3-20.3,14.1c-1,0.7-1.9,1.6-2.9,2.5c-0.3,0.2-0.7,0.5-1.1,0.7l-0.4-0.4c0.3-0.4,0.6-0.8,1-1.2
			c4.8-3.7,9.6-7.5,14.6-11c6.9-4.9,13.8-9.6,20.8-14.4c0.6-0.4,1.2-1,1.8-1.5c1.1-0.8,1.5-2.3,1-3.5c-0.6-1.2-1.8-1.2-2.8-1
			c-1.7,0.3-3.3,0.8-4.8,1.5c-3.7,1.9-7.7,3.2-11.9,3.8c-2.5,0.3-4.6,1.7-6,3.8c-4.6,6.7-9.6,13-15.1,18.9c-0.4,0.5-0.7,1.1-0.9,1.8
			c-3.1,9-6.3,18-9.3,27c-0.5,1.8-0.7,3.6-0.7,5.4c0,1.4-0.9,2.6-2.2,3.1c-2.5,1.1-4.9,2.5-7.4,3.7c-0.4,0.1-0.8,0.1-1.2,0
			c0.3-0.3,0.5-0.8,0.8-0.9c2.6-1.3,5.2-2.6,7.7-4c0.5-0.3,1.1-0.9,1.1-1.3c-0.1-5.6,2.5-10.5,4.1-15.5c1.9-6,4-11.9,6.1-17.8
			c0.3-0.9,0.8-1.7,1.4-2.5c5-5.3,9.6-11.1,13.7-17.2c2-3.2,5.3-5.3,9-5.9c3.3-0.6,6.4-2.1,9.6-3.1c1.8-0.7,3.6-1.3,5.5-1.8
			c2.7-0.6,4.1,0.6,4.5,3.5c2.4-1.9,4.7-3.7,6.9-5.5c5.8-5,11.4-10.2,17.3-15c3.8-3.3,8-5.9,12.6-7.8c4-1.6,7.3-0.6,8.9,3.1
			C342.7,408.1,342.9,409.3,342.9,410.5z"/>
	</g>
</g>
<g id="submit">
	<g id="confirm">
		<path class="st17" d="M828.9,515.8h77.5c12.3,0,22.3-10,22.3-22.3v-31.9c0-12.3-10-22.3-22.3-22.3h-77.5
			c-12.3,0-22.3,10-22.3,22.3v31.9C806.7,505.9,816.7,515.8,828.9,515.8z"/>
		<text transform="matrix(1 0 0 1 824.8722 492.7898)" class="st10 st11 st12">확인</text>
	</g>
	<g id="cancel">
		<path class="st9" d="M975.1,515.8h69.4c14.5,0,26.3-11.8,26.3-26.3v-23.9c0-14.5-11.8-26.3-26.3-26.3h-69.4
			c-14.5,0-26.3,11.8-26.3,26.3v23.9C948.8,504.1,960.5,515.8,975.1,515.8z"/>
		<text transform="matrix(1 0 0 1 969.5403 492.7903)" class="st10 st11 st12">취소</text>
	</g>
	<text transform="matrix(1 0 0 1 538.29 492.7902)" class="st11 st12">포인트 베팅</text>
	<path class="st18" d="M497,513.8H171c-15.2,0-27.4-12.3-27.4-27.4v-21.5c0-15.2,12.3-27.4,27.4-27.4h326
		c15.2,0,27.4,12.3,27.4,27.4v21.5C524.5,501.5,512.2,513.8,497,513.8z"/>
</g>
<g id="ui">
	<g id="question">
		<circle class="st19" cx="432" cy="218.2" r="98"/>
		<path class="st20" d="M388.4,201c0.2-3.6,1.8-21.8,16.6-33.5c15.2-12,41.6-14.8,55.7,1.2c11.1,12.5,13.2,34.8,0.7,47.7
			c-10.7,11-26.6,9.6-29,9.3v27.7"/>
		<circle class="st10" cx="432.4" cy="270.3" r="5.8"/>
	</g>
	<g id="myselect">
		<circle class="st21" cx="768" cy="218.2" r="98"/>
	</g>
	<text transform="matrix(1 0 0 1 254.29 57.79)" class="st11 st7">컴퓨터</text>
	<g id="username">
		<text transform="matrix(1 0 0 1 715.6 57.79)" class="st11 st7">User Name</text>
	</g>
	<text transform="matrix(1 0 0 1 563.46 239.29)" class="st11 st7">VS</text>
	<text id="my_rate" transform="matrix(1 0 0 1 1062.7301 241.496)" class="st11 st22">10%</text>
	<text id="my_point" transform="matrix(1 0 0 1 1062.7303 205.4959)" class="st11 st22">5000</text>
	<text transform="matrix(1 0 0 1 903.5004 205.4958)" class="st11 st22">보유 포인트: </text>
	<text transform="matrix(1 0 0 1 903.5004 241.4958)" class="st11 st22">총 전적:</text>
</g>
</svg>
