<?xml version="1.0" encoding="utf-8"?>
<!-- Generator: Adobe Illustrator 20.0.0, SVG Export Plug-In . SVG Version: 6.00 Build 0)  -->
<svg version="1.2" baseProfile="tiny" id="레이어_1"
	 xmlns="http://www.w3.org/2000/svg" xmlns:xlink="http://www.w3.org/1999/xlink" x="0px" y="0px" viewBox="0 0 600 600"
	 overflow="scroll" xml:space="preserve">
<circle fill="#800000" cx="301" cy="300" r="300"/>
<path fill="none" stroke="#FFFFFF" stroke-width="2.5" d="M171.7,512.8c0.1,0.6,0.3,1.3,0.4,2c1.6-0.4,3.5-0.5,4.9-1.3
	c20-12.8,40.4-24.7,62.7-33.2c16-6.1,32.3-11.7,46.9-21.1c10.2-6.6,21-12.3,31.9-17.4c15.5-7.2,29.5-16.4,41.5-28.6
	c18-18.4,37.8-34.7,58.6-49.8c7.8-5.6,15-12,22.3-18.3c1.7-1.5,2.6-3.8,3.9-5.8c2.9-4.4,4.9-9.7,8.7-13c8.8-7.7,10.8-16.9,8.5-27.7
	c-1.9-9-4-17.9-5.7-26.9c-2.4-13.1-6-25.7-14-36.6c-2.7-3.7-4.1-7.5-4.1-12.3c0-3.1-1.3-6.4-2.8-9.2c-7.3-13.3-16.2-25.5-27-36.3
	c-2.1-2.1-2.3-3.8-1.8-6.5c0.8-4.4,2.2-9.6,0.7-13.4c-4.9-12.4-13.2-21.7-27.1-24.4c-14.5-2.9-28.9-2.1-43.4-0.7
	c-1.8,0.2-4.1,0-5.4-0.9c-5.2-3.8-10.9-3.9-16.6-2.2c-13.3,4-24.7,11.4-34.7,21c-0.9,0.9-1.9,2-2.5,3.1c-7,14.2-18,25.4-28.4,36.9
	c-17.6,19.6-29.5,42.1-35.5,67.7c-3.3,14.4-6.8,28.8-10.4,43.2c-1,4.1-1.9,8.7-4.3,12c-10.4,14.4-23.5,25.4-41,30.3
	c-8.8,2.5-17.9,4.4-26.4,7.7c-20,7.7-39.8,16-59.7,24.2c-1.1,0.4-1.7,2-2.5,3c0.4,0.4,0.8,0.7,1.2,1.1c1.3-0.5,2.7-1,4.1-1.6
	c13-5.4,25.8-11.2,39-16.2c12.8-4.9,25.7-10.3,39-13.3c18.8-4.3,33.3-14.4,45.4-28.6c3.2-3.7,5.5-8.5,7-13.2
	c2.7-8.5,4.3-17.2,6.6-25.8c3.4-13.2,6.1-26.6,10.4-39.5c7-21,19.7-38.7,34.7-54.8c6.7-7.3,13.8-14.7,18.5-23.2
	c9.2-16.8,24.1-25.2,41-31.1c4.6-1.6,9.2-1,13.6,1.9c1.8,1.2,4.4,1.7,6.6,1.6c10.2-0.3,20.4-1.4,30.6-1.2
	c14.2,0.3,26.6,4.5,34.7,17.8c4.4,7.2,4.3,13.8,0.9,21.1c-6.3-2.5-12.8-4-17.5-9.8c-2-2.5-6.4-4.3-9.8-4.4
	c-7.2-0.3-14.4,0.7-21.7,1.3c-2.8,0.2-5.6,0.6-8.4,0.9c0,0.5,0,1.1-0.1,1.6c1.7,0.2,3.4,0.8,5,0.6c6.5-0.6,13-1.5,19.5-2.1
	c7.6-0.7,13.6,2.1,17.7,8.8c1.6,2.7,3.4,5.2,5.1,7.8c1.3,1.8,2.5,3.7,4.1,5.2c0.7,0.7,2.2,0.6,3.3,0.9c-0.4-1-0.6-2-1.2-2.8
	c-1.7-2.5-3.6-5-5.5-7.4c0.3-0.4,0.7-0.7,1-1.1c4,2.1,8.7,3.5,11.8,6.5c11.1,10.9,20.2,23.3,27.3,37.1c1.3,2.4,1.5,5.4,2.2,8.1
	c-0.6,0.3-1.2,0.7-1.8,1c-3.3-4-7.3-7.6-9.8-12c-3.7-6.7-8.7-10.5-16.2-11.7c-6-1-11.8-2.6-17.7-3.8c-0.5-0.1-1.1,0.2-3,0.5
	c2,1.5,3,2.7,4.2,3c4.6,1.1,9.2,2.3,13.9,2.8c8.4,0.8,14,4.8,17.1,12.7c1.6,4,3.6,7.8,5.6,11.6c0.7,1.4,2.1,2.4,3.2,3.6
	c0.4-0.3,0.8-0.5,1.2-0.7c-0.7-1.8-1.4-3.6-2.2-5.7c8.6,6.8,19.3,25.3,19.7,34.1c-1.1-1.8-1.9-3.1-2.8-4.5c-0.5,0.2-1,0.3-1.6,0.5
	c0.4,1.7,0.4,3.8,1.4,5.2c5.1,7.2,7.9,14.8,5.9,23.8c-0.6,2.7,0.1,4.8,3.7,2.9c0.8,3.8,1.5,7.1,2.3,10.4c2.6,10.8,0.4,19.8-8.6,27
	c-2.9,2.3-5.7,5.7-6.8,9.1c-1.8,6-5.6,10-10.1,13.7c-3.8,3.1-7.5,6.3-11.5,9.2c-24,17.3-46.8,35.9-67.5,57.1
	c-9.1,9.3-19.8,16.4-31.6,22.1c-12.2,6-24.1,12.8-36.1,19c-10.5,5.4-21,10.9-31.7,15.9c-7,3.2-14.3,5.7-21.5,8.4
	C211.6,487.9,191.9,500.8,171.7,512.8z"/>
<path fill="none" stroke="#FFFFFF" stroke-width="2.5" d="M171.7,512.8c20.2-12,39.9-24.9,62-33.4c7.2-2.8,14.5-5.2,21.5-8.4
	c10.7-5,21.2-10.4,31.7-15.9c12.1-6.3,23.9-13,36.1-19c11.7-5.7,22.5-12.8,31.6-22.1c20.7-21.2,43.5-39.8,67.5-57.1
	c4-2.9,7.7-6.1,11.5-9.2c4.5-3.7,8.3-7.7,10.1-13.7c1-3.4,3.9-6.8,6.8-9.1c9-7.2,11.2-16.3,8.6-27c-0.8-3.3-1.5-6.6-2.3-10.4
	c-3.7,1.9-4.3-0.2-3.7-2.9c1.9-9-0.9-16.6-5.9-23.8c-1-1.4-1-3.4-1.4-5.2c0.5-0.2,1-0.3,1.6-0.5c0.8,1.4,1.7,2.7,2.8,4.5
	c-0.4-8.8-11.1-27.3-19.7-34.1c0.8,2.1,1.5,3.9,2.2,5.7c-0.4,0.2-0.8,0.5-1.2,0.7c-1.1-1.2-2.4-2.2-3.2-3.6c-2-3.8-4.1-7.6-5.6-11.6
	c-3.1-7.9-8.8-11.8-17.1-12.7c-4.7-0.5-9.3-1.7-13.9-2.8c-1.2-0.3-2.2-1.5-4.2-3c1.9-0.4,2.5-0.6,3-0.5c5.9,1.3,11.8,2.8,17.7,3.8
	c7.5,1.2,12.5,5,16.2,11.7c2.4,4.5,6.4,8,9.8,12c0.6-0.3,1.2-0.7,1.8-1c-0.7-2.7-1-5.7-2.2-8.1c-7.2-13.8-16.3-26.2-27.3-37.1
	c-3.1-3-7.8-4.4-11.8-6.5c-0.3,0.4-0.7,0.7-1,1.1c1.8,2.5,3.7,4.9,5.5,7.4c0.6,0.8,0.8,1.9,1.2,2.8c-1.1-0.3-2.6-0.2-3.3-0.9
	c-1.6-1.5-2.9-3.4-4.1-5.2c-1.8-2.6-3.5-5.1-5.1-7.8c-4.1-6.6-10-9.4-17.7-8.8c-6.5,0.6-13,1.5-19.5,2.1c-1.7,0.1-3.4-0.4-5-0.6
	c0-0.5,0-1.1,0.1-1.6c2.8-0.3,5.6-0.7,8.4-0.9c7.2-0.6,14.5-1.6,21.7-1.3c3.4,0.1,7.7,1.9,9.8,4.4c4.7,5.8,11.2,7.3,17.5,9.8
	c3.4-7.3,3.5-13.9-0.9-21.1c-8.1-13.3-20.5-17.5-34.7-17.8c-10.2-0.2-20.4,0.9-30.6,1.2c-2.2,0.1-4.8-0.4-6.6-1.6
	c-4.3-2.9-9-3.5-13.6-1.9c-17,5.9-31.8,14.3-41,31.1c-4.7,8.6-11.8,16-18.5,23.2c-15,16.2-27.7,33.8-34.7,54.8
	c-4.3,12.9-7.1,26.3-10.4,39.5c-2.2,8.6-3.9,17.4-6.6,25.8c-1.5,4.7-3.8,9.5-7,13.2c-12.1,14.2-26.7,24.2-45.4,28.6
	c-13.3,3.1-26.2,8.4-39,13.3c-13.1,5-26,10.8-39,16.2c-1.3,0.6-2.7,1-4.1,1.6c-0.4-0.3-0.8-0.7-1.2-1.1c0.8-1,1.4-2.5,2.5-3
	c19.8-8.2,39.6-16.5,59.7-24.2c8.5-3.3,17.6-5.2,26.4-7.7c17.5-4.9,30.7-15.9,41-30.3c2.4-3.3,3.3-7.9,4.3-12
	c3.6-14.4,7.1-28.8,10.4-43.2c6-25.7,17.8-48.1,35.5-67.7c10.4-11.5,21.4-22.7,28.4-36.9c0.6-1.2,1.5-2.2,2.5-3.1
	c10-9.6,21.4-16.9,34.7-21c5.7-1.7,11.4-1.6,16.6,2.2c1.3,1,3.6,1.1,5.4,0.9c14.5-1.3,29-2.1,43.4,0.7c14,2.8,22.3,12,27.1,24.4
	c1.5,3.8,0.1,8.9-0.7,13.4c-0.5,2.7-0.3,4.4,1.8,6.5c10.8,10.7,19.7,23,27,36.3c1.5,2.8,2.9,6.1,2.8,9.2c0,4.8,1.4,8.6,4.1,12.3
	c8,10.9,11.6,23.5,14,36.6c1.7,9,3.8,18,5.7,26.9c2.3,10.8,0.2,20-8.5,27.7c-3.8,3.3-5.9,8.6-8.7,13c-1.3,2-2.2,4.3-3.9,5.8
	c-7.3,6.3-14.6,12.7-22.3,18.3c-20.8,15.1-40.6,31.4-58.6,49.8c-11.9,12.2-26,21.4-41.5,28.6c-11,5.1-21.8,10.9-31.9,17.4
	c-14.6,9.4-30.9,15-46.9,21.1c-22.3,8.5-42.7,20.5-62.7,33.2c-1.4,0.9-3.2,0.9-4.9,1.3C172,514.1,171.9,513.4,171.7,512.8z"/>
</svg>
