<?xml version="1.0" encoding="utf-8"?>
<!-- Generator: Adobe Illustrator 20.0.0, SVG Export Plug-In . SVG Version: 6.00 Build 0)  -->
<svg version="1.2" baseProfile="tiny" id="레이어_1"
	 xmlns="http://www.w3.org/2000/svg" xmlns:xlink="http://www.w3.org/1999/xlink" x="0px" y="0px" viewBox="0 0 600 600"
	 overflow="scroll" xml:space="preserve">
<ellipse fill="#008000" cx="300" cy="300.1" rx="300" ry="299.9"/>
<path fill="none" stroke="#FFFFFF" stroke-width="2.5" d="M190.9,500.5c0.2,0.6,0.4,1.2,0.5,1.8c1.7-0.3,3.5-0.3,5-1.1
	c7.6-4,15.1-8.2,22.7-12.3c1.9-1,4.1-1.7,6.2-2.3c5.1-1.5,10.6-2.1,15.2-4.4c10.7-5.4,21.2-11.2,31.4-17.6
	c26.7-16.7,49.1-38.7,73.3-58.5c1.2-0.9,2.2-2.7,2.3-4.1c0.5-4.6,3.4-7.2,7.1-9.1c5-2.6,10-5.2,15.2-7.2
	c18.1-7.1,25.6-31.8,11.6-45.5c-2.2-2.2-1.9-4.3-0.2-6.7c2.7-4.1,5.3-8.2,7.6-12.5c2.9-5.4,3.6-11.3,1.5-17.2c-2.9-8-9.1-13-16-17.3
	c-5.3-3.3-10.8-6.2-17.5-3.4c-0.9,0.4-2.5-1-3.7-1.5c0.5-1.1,0.7-2.6,1.6-3.3c2.7-2.1,5.5-4.1,8.4-5.7
	c19.6-10.7,39.1-21.3,56.7-35.6c19.7-16,41.8-29.1,62.9-43.5c5.3-3.6,10.6-7.1,15.6-11.1c1.9-1.5,3.5-4.2,4-6.6
	c2.4-12.2-9-27-23.7-22.8c-14.6,4.2-28.8,9.1-41.8,17.1c-6.6,4-13.5,7.4-20.3,11c-24.9,13.4-50.7,25.3-72.9,43.2
	c-4.1,3.3-8.8,6-13.2,9c-3.1,2.1-5.2,1.1-6.6-2.1c-3.2-7-2.9-14.1-0.4-21.2c4.5-13,8.1-26.4,13.5-39c9.4-22.2,19.9-44,29.8-66
	c2.8-6.2,5.7-12.5,7.3-19c1.9-7.2-0.3-14-6.4-18.7c-6-4.6-12.7-4-18.8-0.4c-3.9,2.4-7.8,5.7-10.4,9.4c-21.7,30.7-43.8,61.3-59.2,96
	c-4.6,10.4-9.2,20.9-14.5,31c-3.1,5.9-7.1,11.6-11.7,16.6c-5.4,5.9-9.7,12.2-13.2,19.3c-2.8,5.6-6.5,10.9-10.5,15.8
	c-6.2,7.7-13.4,14.7-19.5,22.5c-22.7,29.5-45.1,59.2-67.9,88.7c-2.6,3.4-6.2,6.5-10,8.5c-11.8,6.2-23.9,11.9-35.8,17.8
	c-1,0.5-2,1.1-3,1.7c0.1,0.5,0.2,1,0.2,1.5c1.3-0.1,2.8,0.2,3.8-0.3c12-5.8,23.9-11.9,35.9-17.6c4.8-2.3,8.5-5.6,11.6-10
	c5.5-7.7,11.3-15.3,16.9-22.9c22.1-29.8,43.9-59.8,69.2-87c5-5.4,8.9-11.3,12.1-17.9c2.5-5.3,5.5-10.7,9.6-14.8
	c7.2-7.1,12.7-15.1,16.8-24.3c2.3-5.1,4.9-10.1,7.1-15.3c15.6-38.1,38.9-71.5,62.4-104.8c3-4.2,6.9-8.4,11.3-11
	c10.4-6,20.4-0.4,21.2,11.5c0.2,3.3-0.7,6.9-1.9,9.9c-3,7.1-6.2,14.1-9.9,20.9c-16.9,31.6-28.4,65.4-39.8,99.2c-2.5,7.5-2,15,1.6,22
	c2.5,4.9,5,5.8,9.7,3c5.7-3.4,11.2-7.2,16.6-11.2c13-9.4,26.1-18.3,40.6-25.5c17.5-8.7,34.6-18.2,51.6-27.8
	c12.6-7.2,26.1-11.8,39.9-16c10.6-3.2,20.8,7.7,19.7,17.9c-0.3,2.5-1.9,5.5-3.9,7c-6.9,5.2-14.2,9.7-21.3,14.6
	c-19.6,13.6-39.9,26.3-58.6,41c-13.3,10.5-27.1,19.6-42,27.2c-4.6,2.4-9.2,4.7-13.7,7.4c-3,1.8-5.9,3.9-8.5,6.4
	c-1.1,1-2,3.5-1.5,4.6c0.9,1.8,2.8,3.2,4.7,4.2c1.1,0.6,2.9-0.3,4.3-0.3c2.9,0.1,6.3-0.5,8.5,0.8c5.6,3.3,11.1,6.9,15.7,11.4
	c6.3,6.1,7.1,13.9,3,21.7c-2.7,5.1-5.9,9.9-9.2,15.2c-5.2-4.2-9.9-8.1-14.7-12c-0.6-0.5-1.4-0.7-2.1-1c-0.1,0.9-0.6,2.2-0.2,2.6
	c1.7,1.8,3.6,3.4,5.5,5.1c5,4.8,10.6,9.1,14.9,14.4c8.2,10,6.4,25-3.3,33.6c-0.8,0.7-1.8,1.7-2.5,1.6c-7.6-0.7-14,2.1-18.8,7.7
	c-4.1,4.7-10.9,7.5-11.3,15.2c0,1-1.5,2.1-2.5,2.9c-13,11-25.8,22.4-39.2,32.9c-24.8,19.5-49.2,39.2-81.1,46.9
	C210.7,487.6,201.1,495.2,190.9,500.5z"/>
<path fill="none" stroke="#FFFFFF" stroke-width="2.5" d="M190.9,500.5c10.2-5.3,19.9-12.9,30.7-15.5c31.9-7.7,56.4-27.5,81.1-46.9
	c13.4-10.5,26.1-21.9,39.2-32.9c1-0.8,2.5-1.9,2.5-2.9c0.4-7.6,7.2-10.5,11.3-15.2c4.8-5.5,11.1-8.4,18.8-7.7
	c0.8,0.1,1.8-0.9,2.5-1.6c9.7-8.5,11.5-23.5,3.3-33.6c-4.3-5.3-9.9-9.6-14.9-14.4c-1.8-1.7-3.8-3.3-5.5-5.1
	c-0.4-0.5,0.1-1.7,0.1-2.6c0.7,0.3,1.5,0.5,2.1,1c4.8,3.8,9.6,7.8,14.7,12c3.3-5.4,6.5-10.2,9.2-15.2c4.1-7.8,3.3-15.6-3-21.7
	c-4.6-4.5-10.1-8.1-15.7-11.4c-2.2-1.3-5.6-0.7-8.5-0.8c-1.5,0-3.2,0.9-4.3,0.3c-1.8-0.9-3.8-2.4-4.7-4.2c-0.5-1,0.4-3.6,1.5-4.6
	c2.6-2.4,5.5-4.5,8.5-6.4c4.4-2.7,9.1-5.1,13.7-7.4c15-7.6,28.7-16.8,42-27.2c18.7-14.7,39-27.5,58.6-41c7.1-4.9,14.4-9.4,21.3-14.6
	c2-1.5,3.6-4.5,3.9-7c1.1-10.2-9.1-21.1-19.7-17.9c-13.8,4.2-27.3,8.8-39.9,16c-17,9.6-34.1,19.2-51.6,27.8
	c-14.5,7.1-27.6,16.1-40.6,25.5c-5.4,3.9-10.9,7.8-16.6,11.2c-4.7,2.8-7.2,1.9-9.7-3c-3.7-7.1-4.2-14.5-1.6-22
	c11.3-33.8,22.9-67.6,39.8-99.2c3.6-6.8,6.9-13.8,9.9-20.9c1.3-3.1,2.2-6.7,1.9-9.9c-0.8-12-10.8-17.6-21.2-11.5
	c-4.4,2.6-8.3,6.7-11.3,11c-23.5,33.3-46.9,66.8-62.4,104.8c-2.1,5.2-4.8,10.2-7.1,15.3c-4.1,9.2-9.6,17.2-16.8,24.3
	c-4.1,4-7.1,9.5-9.6,14.8c-3.2,6.6-7.1,12.5-12.1,17.9c-25.3,27.2-47.1,57.2-69.2,87c-5.7,7.6-11.4,15.2-16.9,22.9
	c-3.1,4.3-6.8,7.7-11.6,10c-12,5.8-23.9,11.8-35.9,17.6c-1.1,0.5-2.5,0.2-3.8,0.3c-0.1-0.5-0.2-1-0.2-1.5c1-0.6,1.9-1.2,3-1.7
	c12-5.9,24-11.5,35.8-17.8c3.8-2,7.3-5.1,10-8.5c22.7-29.5,45.1-59.2,67.9-88.7c6.1-7.9,13.2-14.8,19.5-22.5
	c4-4.9,7.7-10.1,10.5-15.8c3.5-7.1,7.8-13.4,13.2-19.3c4.5-4.9,8.5-10.6,11.7-16.6c5.3-10.1,9.9-20.5,14.5-31
	c15.3-34.7,37.4-65.2,59.2-96c2.7-3.8,6.5-7,10.4-9.4c6.1-3.7,12.8-4.2,18.8,0.4c6.1,4.7,8.3,11.5,6.4,18.7
	c-1.7,6.5-4.6,12.8-7.3,19c-9.9,22-20.4,43.8-29.8,66c-5.4,12.6-9,26-13.5,39c-2.4,7.1-2.7,14.2,0.4,21.2c1.5,3.2,3.6,4.2,6.6,2.1
	c4.4-3,9.1-5.6,13.2-9c22.2-17.9,48-29.8,72.9-43.2c6.8-3.6,13.7-7,20.3-11c13-8,27.2-12.9,41.8-17.1c14.7-4.2,26.1,10.6,23.7,22.8
	c-0.5,2.4-2.1,5.1-4,6.6c-4.9,4-10.3,7.5-15.6,11.1c-21,14.4-43.1,27.5-62.9,43.5c-17.6,14.3-37.1,24.9-56.7,35.6
	c-3,1.6-5.8,3.6-8.4,5.7c-0.9,0.7-1.1,2.2-1.6,3.3c1.3,0.5,2.8,1.9,3.7,1.5c6.7-2.8,12.2,0.1,17.5,3.4c6.9,4.3,13.1,9.3,16,17.3
	c2.1,5.9,1.4,11.8-1.5,17.2c-2.3,4.3-4.9,8.4-7.6,12.5c-1.6,2.4-2,4.5,0.2,6.7c13.9,13.6,6.5,38.3-11.6,45.5
	c-5.2,2.1-10.3,4.6-15.2,7.2c-3.6,1.9-6.5,4.5-7.1,9.1c-0.2,1.5-1.2,3.2-2.3,4.1c-24.2,19.8-46.7,41.8-73.3,58.5
	c-10.2,6.4-20.7,12.2-31.4,17.6c-4.6,2.3-10.1,2.9-15.2,4.4c-2.1,0.6-4.3,1.2-6.2,2.3c-7.6,4-15.1,8.3-22.7,12.3
	c-1.5,0.8-3.3,0.7-5,1.1C191.2,501.7,191,501.1,190.9,500.5z"/>
</svg>
